<svg xmlns="http://www.w3.org/2000/svg" viewBox="0 0 120 120"><defs><style>.cls-1{fill:#f6e1d7;}.cls-2{fill:#fefefe;}.cls-3{fill:#f7e5dc;}.cls-4{fill:#f8e8e0;}.cls-5{fill:#f0f0f0;}.cls-6{fill:#f1d4c6;}.cls-7{fill:#eecfc1;}.cls-8{fill:#eac7b8;}.cls-9{fill:#ddb2a0;}.cls-10{fill:#e2e2e2;}.cls-11{fill:#f0eff0;}.cls-12{fill:#efefef;}.cls-13{fill:#e9c8bb;}.cls-14{fill:#ebcdc2;}.cls-15{fill:#eed2c6;}.cls-16{fill:#eacbbf;}.cls-17{fill:#eccec2;}.cls-18{fill:#e3c2b6;}.cls-19{fill:#e7ccc3;}.cls-20{fill:#e6c6ba;}.cls-21{fill:#e6c9be;}.cls-22{fill:#e8c7bb;}.cls-23{fill:#eed2c7;}.cls-24{fill:#e5c4b8;}.cls-25{fill:#e2c4b9;}.cls-26{fill:#efeeef;}.cls-27{fill:#e9c8bc;}.cls-28{fill:#e9c7bb;}.cls-29{fill:#dcb3a7;}.cls-30{fill:#ebccc0;}.cls-31{fill:#ebcabc;}.cls-32{fill:#ddb9ad;}.cls-33{fill:#eee;}.cls-34{fill:#ebcbbe;}.cls-35{fill:#e6c4b8;}.cls-36{fill:#e9cabf;}.cls-37{fill:#e4bfb4;}.cls-38{fill:#e6c4b7;}.cls-39{fill:#eac8bb;}.cls-40{fill:#e8cbc0;}.cls-41{fill:#e8cac0;}.cls-42{fill:#e8c8bc;}.cls-43{fill:#e1c1b5;}.cls-44{fill:#e8c8bb;}.cls-45{fill:#eacbc0;}.cls-46{fill:#dcb1a2;}.cls-47{fill:#ededed;}.cls-48{fill:#eac8bd;}.cls-49{fill:#e4c5b9;}.cls-50{fill:#edeced;}.cls-51{fill:#eeedee;}.cls-52{fill:#dcb2a5;}.cls-53{fill:#e7c7bb;}.cls-54{fill:#e9c9be;}.cls-55{fill:#e3e3e3;}.cls-56{fill:#e3e2e3;}.cls-57{fill:#dbbcb1;}.cls-58{fill:#e6c5ba;}.cls-59{fill:#ebebeb;}.cls-60{fill:#eac7bb;}.cls-61{fill:#debdb2;}.cls-62{fill:#e4c6bb;}.cls-63{fill:#e9c3b7;}.cls-64{fill:#dcbeb3;}.cls-65{fill:#e6c5b9;}.cls-66{fill:#e6c1b2;}.cls-67{fill:#dcbdb1;}.cls-68{fill:#dbb9ae;}.cls-69{fill:#e6bdb0;}.cls-70{fill:#e9c9bc;}.cls-71{fill:#ececec;}.cls-72{fill:#e4c1b3;}.cls-73{fill:#d74848;}.cls-74{fill:#f3d8cc;}.cls-75{fill:#f4dcd0;}.cls-76{fill:#f7e3db;}.cls-77{fill:#de4c4c;}.cls-78{fill:#f7e4db;}.cls-79{fill:#e04d4d;}.cls-80{fill:#d84e4e;}.cls-81{fill:#f9ebe5;}.cls-82{fill:#c14443;}.cls-83{fill:#f67575;}.cls-84{fill:#dc5150;}.cls-85{fill:#c84a4a;}.cls-86{fill:#c84a49;}.cls-87{fill:#f26363;}.cls-88{fill:#f8eae3;}.cls-89{fill:#b34746;}.cls-90{fill:#f26767;}.cls-91{fill:#d34e4e;}.cls-92{fill:#f27373;}.cls-93{fill:#b34140;}.cls-94{fill:#c64a49;}.cls-95{fill:#f3dace;}.cls-96{fill:#b74443;}.cls-97{fill:#cd4f4d;}.cls-98{fill:#c54a49;}.cls-99{fill:#f8e6df;}.cls-100{fill:#c14948;}.cls-101{fill:#f9e9e5;}.cls-102{fill:#c74848;}.cls-103{fill:#b34242;}.cls-104{fill:#b34e4c;}.cls-105{fill:#c3534f;}.cls-106{fill:#c24f4e;}.cls-107{fill:#f9ede6;}.cls-108{fill:#faf0eb;}.cls-109{fill:#f9ece6;}.cls-110{fill:#fbf3ef;}.cls-111{fill:#fdfaf9;}.cls-112{fill:#dfdedf;}.cls-113{fill:#e34d4d;}.cls-114{fill:#e64f4f;}.cls-115{fill:#be4343;}.cls-116{fill:#e04c4c;}.cls-117{fill:#ebc6b7;}.cls-118{fill:#cd4a49;}.cls-119{fill:#a23f3d;}.cls-120{fill:#ef5e5e;}.cls-121{fill:#ed5959;}.cls-122{fill:#8b4f47;}.cls-123{fill:#a04b44;}.cls-124{fill:#ba4342;}.cls-125{fill:#986153;}.cls-126{fill:#df5d5c;}.cls-127{fill:#e85d5c;}.cls-128{fill:#f05e5e;}.cls-129{fill:#f77878;}.cls-130{fill:#ef6565;}.cls-131{fill:#f77272;}.cls-132{fill:#f26262;}.cls-133{fill:#ed5858;}.cls-134{fill:#bb4443;}.cls-135{fill:#f6e3db;}.cls-136{fill:#f6e1d9;}.cls-137{fill:#c14848;}.cls-138{fill:#cc4e4c;}.cls-139{fill:#b24847;}.cls-140{fill:#c64c4b;}.cls-141{fill:#b45f58;}.cls-142{fill:#e34e4e;}.cls-143{fill:#fb7e7e;}</style></defs><g id="SVG"><rect x="-8" y="-8" width="139" height="138"/><path class="cls-1" d="M82.24,45.07c.3.22.38.58.58.86-.11.18,0,.31.09.44A18.65,18.65,0,0,1,84,49c.06.37.19.72.26,1.09.14.71.27,1.42.36,2.14s0,1.24.14,1.86a10.54,10.54,0,0,1-.08,2.69c0,.14,0,.27,0,.41a3.93,3.93,0,0,0-.07.6,13.22,13.22,0,0,0-.35,1.66c-.11.29-.15.59-.25.88a9.22,9.22,0,0,1-.34,1,16.1,16.1,0,0,1-1.31,3.19,1.33,1.33,0,0,1-.25.45c-.75,1.19-1.47,2.4-2.27,3.56-1.14,1.46-2.31,2.89-3.57,4.24-1.1,1.18-2.1,2.46-3.26,3.57a56.74,56.74,0,0,1-5.63,4.88,20.1,20.1,0,0,1-4,2.46l-.18,0c-.35,0-.7,0-1,0s-.93-.18-1.39-.29c-.2-.18-.58-.06-.67-.41.11-.15.3-.07.45-.16A4.58,4.58,0,0,0,59.14,82a37.19,37.19,0,0,1-5.31-3.37,64.75,64.75,0,0,1-8.26-6.78,34.8,34.8,0,0,1-4.82-5.86,22.19,22.19,0,0,1-2.37-5c-.4-1.24-.46-2.54-.92-3.76a3.5,3.5,0,0,1-.08-1.37,24.45,24.45,0,0,1,.08-3.53,34.44,34.44,0,0,1,1.22-4.8,14.69,14.69,0,0,1,4.38-6.59,17.22,17.22,0,0,1,5.06-3,7.32,7.32,0,0,1,1.45-.36,1.29,1.29,0,0,0,.69-.23c-.71-.07-1.35.43-2,.18-.05-.37.36-.2.46-.4h.13a23.91,23.91,0,0,1,3.59-.28,13.54,13.54,0,0,1,1.91,0h.25c.5.26,1.08.19,1.58.42.68.2,1.34.45,2,.65h0a8.79,8.79,0,0,1,.87.43c.21.07.39.19.6.27s.65.33,1,.5l.92.72a2.58,2.58,0,0,1,.6.36h0c.2.13.35.32.55.46a3.64,3.64,0,0,1,.89.86,1.69,1.69,0,0,0,.71.53c.3.1.65,0,.94.14.11.5.24.58.71.42a1.81,1.81,0,0,0,.47-.26,10.48,10.48,0,0,1,4-1.88,2.84,2.84,0,0,0,.56-.19.34.34,0,0,0,.18-.19c-.42-.15-.84.25-1.24,0a.17.17,0,0,1,0-.17,1.85,1.85,0,0,1,1-.21l.23-.12a4.27,4.27,0,0,0,1.13-.05h1.09a17.42,17.42,0,0,1,3,.74c.43.15.83.37,1.26.51h0c.25.21.58.29.84.49s.76.19,1,.58.74.7,1.08,1.08.5.55.73.85l.11.11A11.21,11.21,0,0,0,82.24,45.07Z"/><path class="cls-2" d="M82.71,9.12A5.44,5.44,0,0,1,84,7.57a3.27,3.27,0,0,1,.72-.37l.36-.12c.22-.15.5,0,.72-.12h0A1.93,1.93,0,0,1,87,7c.23,0,.48,0,.71.07l1.43.72a1.53,1.53,0,0,1,.49.49.36.36,0,0,0,.23.35c.14.13.15.33.24.48l.12.36c.16.31,0,.66.12,1h0a1.91,1.91,0,0,1,.06.82c0,1.81,0,3.62,0,5.43a1,1,0,0,1-.06.58h0c-.16.3,0,.65-.12,1,0,.13,0,.27-.12.36s-.11.35-.24.48l-.23.36a2.32,2.32,0,0,1-.61.6c-.3,0-.32.36-.59.36a6.75,6.75,0,0,1-.72.24h0c-.18.14-.42,0-.6.12h0a3.87,3.87,0,0,1-1.44,0h0c-.18-.15-.42,0-.6-.12-.56-.07-1-.49-1.43-.72a1.44,1.44,0,0,1-.49-.49l-.6-1.19c-.16-.43,0-.89-.12-1.32h0a13,13,0,0,1,0-2.25c0-1.29-.08-2.58,0-3.86h0C82.62,10.25,82.42,9.65,82.71,9.12Z"/><path class="cls-2" d="M30.81,19.78a3.56,3.56,0,0,1-.95-1.43c-.15-.18,0-.42-.12-.6h0a.62.62,0,0,1-.06-.4V10.54a1,1,0,0,1,.07-.53c.11-.2,0-.45.11-.65a3.37,3.37,0,0,0,.47-.95,2.82,2.82,0,0,1,.73-.73,1.16,1.16,0,0,0,.59-.35,6.84,6.84,0,0,1,.72-.25h0c.22-.15.5,0,.72-.12h0a2.19,2.19,0,0,1,1.08,0h0c.22.16.5,0,.72.12a4.1,4.1,0,0,1,2.16,1.44,4.84,4.84,0,0,1,.36.72.82.82,0,0,1,.12.48,19.77,19.77,0,0,1,.06,2.18c0,.23-.07.47.06.7h0a11.28,11.28,0,0,1,0,2.66,18.32,18.32,0,0,0,0,2,2,2,0,0,1,0,.77,3.54,3.54,0,0,1-1.14,1.88c-.09.09-.24.13-.3.27a3.27,3.27,0,0,1-.72.37l-.36.12c-.22.15-.5,0-.72.12h0a3.26,3.26,0,0,1-1.32,0h0c-.26-.14-.61,0-.83-.24l-1-.36A.88.88,0,0,1,30.81,19.78Z"/><path class="cls-2" d="M79.12,105.48a2.68,2.68,0,0,1,1.43,1.2,14.68,14.68,0,0,1,.13,4.08A2.05,2.05,0,0,1,79,112.44c-1.25.08-2.51.1-3.76.12-.66,0-1.32,0-2,0-.39,0-.57-.09-.57-.54q0-6.13,0-12.27c0-.19-.07-.44.25-.43,1.66,0,3.31-.08,5,.05h0c.18.15.42,0,.6.12a3.36,3.36,0,0,1,1.67,1.44,3.67,3.67,0,0,1,.25.84h0a9.66,9.66,0,0,1,0,2.28c0,.42-.42.54-.6.83s-.25.15-.36.25l-.24.12C79.33,105.39,78.71,105.18,79.12,105.48Z"/><path class="cls-2" d="M86.67,107.16l-.12-.35a1.06,1.06,0,0,0-.37-.18c-.36,0-.55,0-.54.46,0,1.59,0,3.19,0,4.79,0,.67,0,.67-.65.68s-1.56,0-2.34,0c-.34,0-.49-.11-.49-.49,0-4.11,0-8.21,0-12.32,0-.19-.06-.44.25-.43,1.66,0,3.31-.08,5,.05h0c.22.16.49,0,.72.12a1.27,1.27,0,0,0,.71.36,1.53,1.53,0,0,1,.49.49c.15.36.52.62.47,1.07.13.23,0,.48.08.72a3.17,3.17,0,0,1,0,1.56h0c-.15.22,0,.5-.12.72a1.67,1.67,0,0,1-1.07,1.08c-.07.16-.42-.11-.36.24a2.83,2.83,0,0,1,1.43,1.19c.16.22,0,.5.12.72h0A6.11,6.11,0,0,1,90,109c0,1.16.06,2.31,0,3.47a13.38,13.38,0,0,1-2.9.07c-.35,0-.28-.32-.28-.55v-4.23A1.08,1.08,0,0,0,86.67,107.16Z"/><path class="cls-2" d="M96.26,14.75l-.12-.12c-.78-.13-.78-.13-.78.62,0,1.55,0,3.11,0,4.67,0,.44-.14.6-.58.59-.8,0-1.6,0-2.4,0-.38,0-.51-.14-.51-.53,0-4.09,0-8.19,0-12.28,0-.18-.07-.44.25-.43,1.65,0,3.31-.08,5,.05h0c.22.16.49,0,.71.12l.72.36a1.5,1.5,0,0,1,.48.49.66.66,0,0,0,.24.47c.18.16.15.41.24.6h0c.16.26,0,.58.12.84h0a3.49,3.49,0,0,1,0,1.44h0c-.15.22,0,.49-.12.72a1.87,1.87,0,0,1-1.07,1.08c-.07.16-.42-.11-.36.24a2.62,2.62,0,0,1,1.43,1.19c.16.22,0,.5.12.72h0a36.09,36.09,0,0,1,0,3.75c0,1.26.27,1.16-1.17,1.17H97.17c-.73,0-.73,0-.73-.72,0-1.25,0-2.51,0-3.76A3.26,3.26,0,0,0,96.26,14.75Z"/><path class="cls-2" d="M23.86,8.88l.84,2.52a8,8,0,0,0,.43,1.24,1.29,1.29,0,0,0,.11-.71c0-1.37,0-2.75,0-4.13,0-.4.1-.57.53-.54.62,0,1.24,0,1.86,0,.39,0,.51.11.5.51,0,1.43,0,2.87,0,4.31,0,2.59,0,5.18,0,7.77,0,.49-.14.69-.64.66s-1.24,0-1.86,0c-.22,0-.44,0-.57-.24l-.36-1.2c-.1-.28-.13-.57-.24-.84l-.12-.36c-.1-.14,0-.33-.12-.48L23.5,15c-.32,0-.17.29-.17.44,0,1.48,0,2.95,0,4.43,0,.5-.14.68-.64.65s-1.12,0-1.68,0c-.19,0-.41.05-.55-.15,0-4.34,0-8.68,0-13a13.39,13.39,0,0,1,2.9,0h0C23.52,7.85,23.72,8.36,23.86,8.88Z"/><path class="cls-2" d="M68.21,11.88a.8.8,0,0,1,.12.48,5.67,5.67,0,0,0,.12,1.08h0c.16.27,0,.58.12.85h0c.16.27,0,.58.12.84h0c.15.22,0,.5.12.72h0c.16.27,0,.58.12.84h0c.16.26,0,.58.12.84h0c.1.52.13,1,.24,1.56h0c.16.26,0,.58.12.84h0c.16.41,0,.6-.42.6-.84,0-1.68,0-2.52,0-.37,0-.47-.19-.54-.48h0c-.16-.47,0-1-.12-1.44h0c-.07-.63-.55-.37-.89-.42s-.3.35-.43.54h0c-.17.43,0,.89-.13,1.32h0a.5.5,0,0,1-.6.48c-.81,0-1.62,0-2.44,0-.38,0-.54-.13-.5-.53s.13-.92.18-1.39h0c.1-.6.14-1.2.24-1.8h0c.16-.3,0-.65.12-1h0c.16-.26,0-.57.12-.84h0c.16-.3,0-.65.12-1h0c.16-.27,0-.58.12-.85h0c.16-.31,0-.66.12-1h0c.16-.27,0-.58.12-.84h0c.16-.31,0-.66.12-1h0c.16-.26,0-.58.12-.84h0c.16-.3,0-.65.12-1h0c.1-.43-.06-1,.27-1.29s.92-.07,1.4-.08c1,0,1.95,0,2.92,0,.44,0,.66.11.68.55h0c.16.26,0,.58.12.84h0c.16.26,0,.58.12.84h0c.15.22,0,.5.12.72h0c.16.26,0,.58.12.84h0C68.25,11.3,68.05,11.61,68.21,11.88Z"/><path class="cls-2" d="M52.51,10.92c.13.74.82,1,1.33,1.31l1.78,1.2c.17.11.31.26.49.37h0c.08.23.4.31.36.61l.36.59a5.55,5.55,0,0,1,.24,1.2h0a4.74,4.74,0,0,1,0,1.68l-.12.12a1,1,0,0,1,0,.72l-.24.6A2.74,2.74,0,0,1,56,20l-1.32.6c-.22.15-.49,0-.71.12h0a3.87,3.87,0,0,1-1.44,0h0c-.18-.15-.42,0-.6-.12a3.08,3.08,0,0,1-2.4-2c-.14-.18,0-.42-.12-.6h0a15.08,15.08,0,0,1-.06-1.9c0-.23.09-.32.32-.32h2.57c.26,0,.35.1.35.35q0,.81,0,1.62c0,.72.16.85.9.73a.78.78,0,0,0,.36-.36,4.74,4.74,0,0,1,0-1.68l-.24-.36a1,1,0,0,0-.36-.36A18.84,18.84,0,0,0,51,14.09,3.29,3.29,0,0,1,49.4,12l-.13-.39A6.71,6.71,0,0,1,49.4,9a3.31,3.31,0,0,1,1.07-1.44,4.84,4.84,0,0,1,.72-.36l.48-.11c.22-.16.5,0,.72-.13h0A1.93,1.93,0,0,1,53.6,7c.23,0,.48,0,.71.08a3.44,3.44,0,0,1,2.08,1.29,1.1,1.1,0,0,1,.31.74,10.6,10.6,0,0,1,.06,1.78c0,.28-.13.32-.37.32H54c-.29,0-.38-.11-.38-.38a2.81,2.81,0,0,0,0-1c0-.4-.16-.57-.58-.63s-.4.18-.5.39A2.94,2.94,0,0,0,52.51,10.92Z"/><path class="cls-2" d="M37.05,100.33a.25.25,0,0,0,.11.24c.21.29.14.65.25,1h0a7.47,7.47,0,0,1,.06,1.42c0,.27-.14.32-.37.32H34.6c-.29,0-.37-.11-.37-.38a5.16,5.16,0,0,0-.06-1.36h0a.5.5,0,0,0-.72-.24.25.25,0,0,0-.24.12c-.14.55,0,1.13-.12,1.68l.24.36a.38.38,0,0,1,.24.24l2.87,1.92a1.94,1.94,0,0,1,.61.6c.15.5.63.86.6,1.43a15.39,15.39,0,0,1,0,2.88c0,.17.05.35-.12.48a2.69,2.69,0,0,1-.24.48h0a1.6,1.6,0,0,1-.49.48.36.36,0,0,0-.35.23c-.13.14-.33.15-.48.25s-.49.13-.72.24-.42,0-.6.12h0a3.87,3.87,0,0,1-1.44,0h0c-.22-.16-.5,0-.72-.12a3,3,0,0,1-1.43-.72,1.53,1.53,0,0,1-.49-.49l-.47-1.19c-.17-.47,0-1-.12-1.44h0a.24.24,0,0,1-.05-.1c-.08-.91-.08-.91.83-.92.62,0,1.24,0,1.85,0s.56.15.55.58a6.52,6.52,0,0,0,.05,1.65l.24.48a.65.65,0,0,0,1-.48h0a3.49,3.49,0,0,0,0-1.44c-.2-1-1.17-1.4-1.9-1.91a6.09,6.09,0,0,1-2.29-2.16c-.18-.16-.15-.41-.24-.6h0a7.22,7.22,0,0,1,.24-3.36.36.36,0,0,0,.23-.35,1.09,1.09,0,0,1,.37-.37,8.33,8.33,0,0,1,1.43-.72c.23-.12.48,0,.71-.07a1.93,1.93,0,0,1,1.21,0h0c.26.17.58,0,.84.12s.31.11.48.12.41.14.6.24l.36.24A2.14,2.14,0,0,1,37.05,100.33Z"/><path class="cls-3" d="M48.19,37.41a10.77,10.77,0,0,0,1.87-.33c.19,0,.47-.12.54.1s-.23.28-.39.33c-.7.23-1.44.25-2.13.54A17.58,17.58,0,0,0,43.2,41a13.88,13.88,0,0,0-4.34,6.5c-.4,1.3-.74,2.62-1,4a31.52,31.52,0,0,0-.29,5.21,2,2,0,0,0,.11.58A28.5,28.5,0,0,0,39.27,63a18,18,0,0,0,2.29,3.9,46.25,46.25,0,0,0,4.64,5.34c1.47,1.35,3,2.62,4.6,3.86,1.91,1.52,3.89,2.93,5.9,4.31,1.14.78,2.41,1.31,3.58,2a4,4,0,0,1,.34.23c.11.09.28.17.21.33s-.23.09-.37.06l-.4-.08c-.48.14-.83-.18-1.21-.35A23.51,23.51,0,0,1,56,81.09c-1.1-.68-2.19-1.4-3.28-2.12a10.53,10.53,0,0,1-1.16-.86c-.22,0-.3-.27-.51-.3l-.1-.1c-.13-.14-.29-.24-.41-.39s-.16-.16,0-.28c.49-.05.71.4,1.08.57.19.09.3.3.53.41a11.48,11.48,0,0,0-2-1.67c-1.11-.74-2-1.77-3-2.6a36.44,36.44,0,0,1-4.34-4.53,16.06,16.06,0,0,1-2.33-3.09,1.81,1.81,0,0,0-.41-.51,16.14,16.14,0,0,1-2-4.51,19,19,0,0,1-.61-2.24c-.09-.31-.16-.62-.25-.92a22.3,22.3,0,0,1,.13-6.87,42.09,42.09,0,0,1,1.54-5.32,1.61,1.61,0,0,1,.27-.52,1.5,1.5,0,0,0,.47-.69.64.64,0,0,1,.08-.14,1.17,1.17,0,0,0,.29-.55.89.89,0,0,1,.24-.41,1.34,1.34,0,0,0,.36-.39.47.47,0,0,1,.09-.12,1.12,1.12,0,0,0,.27-.46,1.44,1.44,0,0,1,.5-.64c.89-.77,1.72-1.61,2.67-2.3a8.73,8.73,0,0,1,1.15-.75c.19-.1.42-.18.4-.46a.22.22,0,0,1,.09-.14,9.15,9.15,0,0,1,1.66-.67l.21-.12a4,4,0,0,1,.48-.07A.18.18,0,0,1,48.19,37.41Z"/><path class="cls-4" d="M40.16,65.57c.59.74,1.07,1.56,1.68,2.29a53.08,53.08,0,0,0,4.54,5c1.2,1.13,2.43,2.23,3.73,3.24a14.61,14.61,0,0,1,2,1.63c.13.14.33.24.28.58a20.15,20.15,0,0,0-1.88-1.28c-.12.07-.21,0-.3-.06-.54-.46-1.15-.82-1.64-1.33a4.66,4.66,0,0,1-.85-.75c-.59-.56-1.22-1.08-1.82-1.63-1-.91-2-1.9-2.91-2.89-.14-.14-.22-.33-.42-.4s-.15-.31-.33-.37c-.55-.65-1.1-1.3-1.6-2-.17-.22-.44-.42-.35-.77.31-.1.42.16.55.33l1.57,2a21.65,21.65,0,0,1-2.13-3.08C40.15,66,40,65.8,40.16,65.57Z"/><path class="cls-5" d="M42.2,106c0-2,0-4.11,0-6.16,0-.46.14-.59.58-.58.8,0,1.6,0,2.4,0,.39,0,.52.12.51.51,0,1.2,0,2.39,0,3.59,0,.37,0,.6.51.59s.46-.23.46-.57c0-1.17,0-2.35,0-3.53,0-.49.16-.61.62-.6.84,0,1.68,0,2.52,0,.37,0,.48.12.48.48q0,6.21,0,12.4c0,.43-.18.56-.58.55-.82,0-1.64,0-2.46,0-.46,0-.57-.19-.57-.61,0-1.48,0-3,0-4.43,0-.36,0-.61-.49-.61s-.48.27-.48.61c0,1.5,0,3,0,4.49,0,.41-.1.57-.53.56-.8,0-1.6,0-2.4,0-.47,0-.56-.17-.56-.6C42.21,110.06,42.2,108,42.2,106Z"/><path class="cls-6" d="M36,52.28a19.68,19.68,0,0,1,1.18-5,1.32,1.32,0,0,1,.12-.2c.2-.16.37-.45.68-.16a1.6,1.6,0,0,1-.07.72,27.32,27.32,0,0,0-1.09,4.9,18.44,18.44,0,0,0,.1,5.5,1.28,1.28,0,0,1,0,.7c-.23.26-.27,0-.36-.13A5.45,5.45,0,0,1,36,57.19,3.84,3.84,0,0,1,35.86,56a13,13,0,0,0,0-2.49c0-.17-.06-.35.1-.49A.92.92,0,0,0,36,52.28Z"/><path class="cls-5" d="M29,112.55c-.13.18-.32.13-.5.13-1.65,0-3.31,0-5,0-.5,0-.65-.18-.64-.67q0-6.08,0-12.15c0-.45.08-.64.59-.63,1.57,0,3.15,0,4.73,0,.45,0,.59.14.57.59a16.62,16.62,0,0,0,0,1.73c0,.34-.11.47-.45.45s-.92,0-1.38,0-.47.1-.45.44c0,.5,0,1,0,1.5s.16.48.5.46.73,0,1.08,0,.63.08.6.56a14.41,14.41,0,0,0,0,1.61c0,.38-.13.5-.49.48s-.84,0-1.25,0-.43.12-.42.42c0,.78,0,1.56,0,2.34a.14.14,0,0,1-.19-.06,8,8,0,0,1-.08-2.49c0-.3.23-.45.52-.49s.44,0,.66,0a1.89,1.89,0,0,0,.53,0c.7-.21.33-.79.39-1.21s.1-.72-.41-.77-.72,0-1.08,0a.61.61,0,0,1-.64-.64c0-.58,0-1.16,0-1.74a.57.57,0,0,1,.6-.6c.38,0,.76,0,1.14,0s.51-.15.51-.51c0-1.92.13-1.6-1.44-1.62-1,0-2.07,0-3.11,0-.62,0-.69.07-.69.69q0,5.65,0,11.32c0,.6.07.66.71.66,1.34,0,2.68,0,4,0a2.66,2.66,0,0,1,.84.07A.43.43,0,0,1,29,112.55Z"/><path class="cls-5" d="M48.31,17.87c0,.78,0,1.56,0,2.33,0,.31-.1.43-.42.43H42.69c-.36,0-.49-.17-.49-.51V7.66c0-.34.1-.46.44-.46h5c.32,0,.47.09.46.44q0,.93,0,1.86c0,.38-.15.48-.5.46s-.84,0-1.26,0-.55.15-.53.56a13.64,13.64,0,0,1,0,1.43c0,.32.13.43.43.42h1.62a.14.14,0,0,1-.07.19,4.48,4.48,0,0,1-1.71.09.53.53,0,0,1-.54-.54,12.69,12.69,0,0,1,0-1.85.58.58,0,0,1,.63-.58c.38,0,.75,0,1.13,0a.43.43,0,0,0,.48-.48.49.49,0,0,0,0-.12c0-1.79.11-1.51-1.41-1.52-1.06,0-2.12,0-3.18,0-.49,0-.66.19-.66.67q0,5.65,0,11.31c0,.62.08.7.69.7h4.13c.48,0,.67-.18.67-.67a4.12,4.12,0,0,1,.11-1.6A.14.14,0,0,1,48.31,17.87Z"/><path class="cls-5" d="M97.45,109.92a8.25,8.25,0,0,1,.1,2.48c0,.25-.24.28-.45.28-1.74,0-3.48,0-5.22,0-.48,0-.42-.3-.42-.6v-7.84c0-1.46,0-2.92,0-4.38,0-.45.1-.63.6-.62,1.57,0,3.15,0,4.73,0,.46,0,.61.16.56.59a7.91,7.91,0,0,1-.12,2.06.6.6,0,0,1-.08-.08,4.44,4.44,0,0,1-.11-1.54c0-.63-.07-.7-.68-.7h-3.9c-.6,0-.67.08-.67.71,0,1.93,0,3.87,0,5.81v5.33c0,.78,0,.82.8.83h3.9c.76,0,.78,0,.8-.83a3.79,3.79,0,0,1,.11-1.42Z"/><path class="cls-5" d="M66.53,100.21a2.16,2.16,0,0,0,0-.36c-.07-.46.11-.62.6-.61,1.19,0,2.39,0,3.59,0,.35,0,.49.1.49.47q0,6.19,0,12.4c0,.42-.16.57-.57.56a16.31,16.31,0,0,0-1.85,0c-.54,0-.72-.12-.71-.69,0-2.18,0-4.35,0-6.53v-.65c-.22.28,0,.6-.24.79l-.07-.08a1.85,1.85,0,0,1,.31-1.74,1,1,0,0,1,.26.47c.11,1.25,0,2.51.05,3.77s0,2.35,0,3.53c0,.61.08.67.7.69h1.32a.41.41,0,0,0,.47-.47c0-.14,0-.28,0-.42V100.52c0-.93,0-1-.93-1-.7,0-1.39,0-2.09,0s-1,0-1.24.65Z"/><path class="cls-5" d="M73.48,13c-.19.17-.11.41-.11.62,0,2.13,0,4.27,0,6.4,0,.48-.1.69-.62.66a13.53,13.53,0,0,0-1.91,0c-.5,0-.6-.16-.6-.62,0-3.43,0-6.87,0-10.3,0-.66,0-1.32,0-2,0-.41.12-.56.54-.55,1.12,0,2.24,0,3.35,0,.74,0,.78,0,.79.78v.3h-.11c-.21-.72-.74-.8-1.39-.77s-1.44,0-2.16,0-.69.08-.7.69c0,1.11,0,2.23,0,3.35v7.71c0,.92,0,.92.94.93.3,0,.6,0,.9,0,.49,0,.66-.21.66-.68,0-1.2,0-2.4,0-3.59,0-1,0-2.08,0-3.11,0-.28,0-.74.34-.7s.27.46.16.75Z"/><path class="cls-5" d="M87.39,99.37c-1.52,0-3,0-4.55,0-.45,0-.62.1-.62.6q0,5.94,0,11.9c0,.42.09.61.56.59.75,0,1.51,0,2.27,0,.42,0,.54-.14.54-.55,0-1.58,0-3.15,0-4.73,0-.2-.13-.49.16-.57s.6-.15.79.21c-.83-.23-.84-.22-.84.63,0,1.55,0,3.11,0,4.67,0,.44-.12.6-.57.58q-1.2-.06-2.4,0c-.51,0-.65-.19-.64-.67q0-6.08,0-12.16c0-.44.09-.63.59-.62,1.39,0,2.79,0,4.19,0C87.06,99.26,87.25,99.2,87.39,99.37Z"/><path class="cls-5" d="M97.1,7.32c-1.52,0-3,0-4.55,0-.45,0-.62.1-.62.6q0,5.94,0,11.9c0,.43.1.61.57.59.75,0,1.51,0,2.27,0,.42,0,.54-.14.54-.56,0-1.55,0-3.1,0-4.66,0-.74.11-.81.84-.55-.56-.09-.75.12-.74.71,0,1.57,0,3.15,0,4.73,0,.45-.15.58-.59.57-.81,0-1.63,0-2.45,0-.4,0-.57-.13-.57-.55,0-4.13,0-8.26,0-12.39,0-.29,0-.5.41-.49h4.55A.35.35,0,0,1,97.1,7.32Z"/><path class="cls-5" d="M25.06,20.27a11.34,11.34,0,0,0,2.73.1c.34,0,.26-.29.26-.49,0-1.28,0-2.55,0-3.83,0-2.69,0-5.39,0-8.08,0-.54-.16-.7-.68-.66a10,10,0,0,1-1.55,0c-.42,0-.55.12-.55.54,0,1.73,0,3.47,0,5.22a4.38,4.38,0,0,1-.55-1.68l.48,1.11c0-1.66,0-3.14,0-4.63,0-.58.18-.72.71-.69s1.2,0,1.8,0c.34,0,.51.07.5.46,0,4.17,0,8.35,0,12.52,0,.28-.05.46-.39.45H25.51C25.26,20.63,25.08,20.55,25.06,20.27Z"/><path class="cls-5" d="M77.92,99.37c-1.52,0-3,0-4.55,0-.44,0-.62.1-.62.6q0,5.94,0,11.9c0,.49.18.59.63.59,1.87,0,3.74,0,5.62,0a.37.37,0,0,1-.33.12c-1.81,0-3.62.19-5.43.13-.44,0-.6-.15-.6-.6q0-6.16,0-12.34c0-.29,0-.5.4-.5h4.62C77.75,99.26,77.83,99.33,77.92,99.37Z"/><path class="cls-5" d="M63.53,108.12c0,1.32,0,2.63,0,3.95,0,.45-.09.65-.59.62a12.69,12.69,0,0,0-1.85,0c-.52,0-.69-.16-.69-.69,0-3.15,0-6.3,0-9.45V99.74c0-.24,0-.49.35-.49h4c.07,0,.14.08.2.11a.6.6,0,0,1-.08.08,1.52,1.52,0,0,1-.76.11H61.62c-.87,0-.89,0-.89.92V107c0,1.48,0,3,0,4.43,0,.76.06.81.82.82.36,0,.72,0,1.08,0s.6-.19.6-.61q0-1.32,0-2.64a1.65,1.65,0,0,1,.11-.82A.15.15,0,0,1,63.53,108.12Z"/><path class="cls-5" d="M76.36,7.92c-.1-.57.13-.75.71-.73,1.14,0,2.28,0,3.41,0,.4,0,.57.09.56.53Q81,13.87,81,20c0,.46-.14.65-.62.63-.67,0-1.35,0-2,0-.38,0-.48-.13-.48-.49,0-.88,0-1.75,0-2.63a.13.13,0,0,1,.19.06,6.32,6.32,0,0,1,.11,1.89c0,.67.07.72.72.74.4,0,.8,0,1.19,0s.6-.16.59-.56c0-.14,0-.28,0-.42V8.45c0-.93,0-.94-.93-.94s-1.56,0-2.33,0a1.09,1.09,0,0,0-1,.42Z"/><path class="cls-7" d="M36,57.19l.83,1.67c.16,0,.22.09.24.21a23.61,23.61,0,0,0,1.05,3.67.37.37,0,0,1,0,.18c-.27.44-.38-.15-.59-.09a15.65,15.65,0,0,1-1.3-4.06C36.1,58.25,36.06,57.72,36,57.19Z"/><path class="cls-8" d="M37.51,62.83c.34-.29.32.18.5.23s.23.06.27.16a26.09,26.09,0,0,0,2,3.5.33.33,0,0,1,0,.17,13.53,13.53,0,0,0,1.66,2.31c.11.14.27.25.26.45a15.38,15.38,0,0,1-2.45-2.89A18,18,0,0,1,37.51,62.83Z"/><path class="cls-5" d="M96.26,14.75a1.45,1.45,0,0,1,.24.95c0,1.4,0,2.79,0,4.18,0,.4.13.53.52.51.69,0,1.39,0,2.09,0,.44,0,.52-.18.52-.57,0-1.41,0-2.82,0-4.24,0,.09.12.18.12.26v4.31c0,.37-.19.47-.52.47-.78,0-1.56,0-2.33,0-.41,0-.52-.14-.51-.52,0-1.19,0-2.39,0-3.58A9.63,9.63,0,0,0,96.26,14.75Z"/><path class="cls-9" d="M65.21,42.19a2.44,2.44,0,0,1-1.07-.11c0-.12,0-.18.13-.13a19.44,19.44,0,0,1,4-1.71l.4-.09c.12,0,.15,0,.16.13-.17.23-.45.26-.68.37a20.62,20.62,0,0,0-2.3,1.27A1,1,0,0,1,65.21,42.19Z"/><path class="cls-7" d="M37.89,46.88l-.61.23a14.41,14.41,0,0,1,2-3.6c.2,0,.25-.4.53-.2a.36.36,0,0,1,0,.25,26.49,26.49,0,0,0-1.65,3A.55.55,0,0,1,37.89,46.88Z"/><path class="cls-10" d="M20.51,7.33V20.38c0,.11,0,.17-.12.12V7.83c0-.21-.08-.45.11-.62.05,0,.06,0,.05.07S20.52,7.33,20.51,7.33Z"/><path class="cls-5" d="M20.39,20.5l.12-.12c.74,0,1.48,0,2.21,0,.42,0,.56-.12.55-.54,0-1.77,0-3.54,0-5.37a.48.48,0,0,1,.24.51c-.19.18-.11.41-.11.62,0,1.49,0,3,0,4.48,0,.4-.11.58-.54.54A10.67,10.67,0,0,1,20.39,20.5Z"/><path class="cls-5" d="M86.67,107.16c.2.18.11.42.11.62,0,1.36,0,2.71,0,4.07,0,.49.15.62.61.6.84,0,1.67,0,2.51,0,0,0,0,.06,0,.09s0,0,0,0a2.21,2.21,0,0,1-1.27.11c-.63,0-1.45.29-1.84-.13s-.11-1.22-.12-1.85C86.66,109.52,86.67,108.34,86.67,107.16Z"/><path class="cls-5" d="M61,18.59a4.66,4.66,0,0,1-.11,1.23c-.09.38,0,.59.49.58a22.44,22.44,0,0,1,2.32,0,.64.64,0,0,0,.66-.37c.06.45-.1.63-.59.61-.85,0-1.7,0-2.55,0-.37,0-.54-.05-.48-.49A8.1,8.1,0,0,1,61,18.59Z"/><path class="cls-11" d="M53.47,18.47c-.68.25-.95.08-1-.59s0-1.07,0-1.61c0-.28-.06-.45-.39-.44H49.79c-.32,0-.41.14-.4.43,0,.58,0,1.15,0,1.73a6.13,6.13,0,0,1-.1-2c0-.21.18-.23.35-.23h2.62c.29,0,.38.14.37.4,0,.5,0,1,0,1.49C52.63,18.39,52.7,18.45,53.47,18.47Z"/><path class="cls-5" d="M59.58,111.84c.26.71.19.83-.49.84H56.94c-.83,0-.83,0-.84-.84h.1a.94.94,0,0,0,1,.45c.55,0,1.11,0,1.67,0a.64.64,0,0,0,.68-.37Z"/><path class="cls-5" d="M65.93,20a.63.63,0,0,0,.65.37c.79,0,1.58,0,2.37,0,.37,0,.5-.14.46-.48.22.62.17.71-.43.72-.82,0-1.64,0-2.46,0C66,20.66,65.86,20.49,65.93,20Z"/><path class="cls-12" d="M29.85,10a1.38,1.38,0,0,0-.11.75v7c-.17-.13-.12-.33-.12-.5V10.46c0-.18-.05-.37.12-.5S29.81,9.9,29.85,10Z"/><path class="cls-5" d="M54.55,112.44c-.06.33-.32.23-.52.23H51.66c-.78,0-.88-.17-.59-1a.46.46,0,0,1,.07.07c.13.38.41.47.79.48a11.47,11.47,0,0,1,2.55.1Z"/><path class="cls-13" d="M39.81,43.28c-.2,0-.23.36-.49.23a12.3,12.3,0,0,1,2.88-3,.2.2,0,0,1,0,.15c-.3.51-.83.81-1.14,1.31a3.73,3.73,0,0,1-.26.3,1.69,1.69,0,0,0-.34.41l-.09.13C40.22,43,40.13,43.27,39.81,43.28Z"/><path class="cls-14" d="M56,81a35.78,35.78,0,0,0,3.61,1.81,3.84,3.84,0,0,0,.46.11c.13.23.44.17.6.36,0,0,.05,0,0,.07a.05.05,0,0,1,0,0,20.53,20.53,0,0,1-4.82-2.36C55.88,81,55.93,81,56,81Z"/><path class="cls-15" d="M56,81l-.15,0a21.06,21.06,0,0,1-3.21-2c0-.07.07-.09.12-.12l2.89,1.85C55.77,80.81,55.92,80.87,56,81Z"/><path class="cls-16" d="M42.53,70c.28-.16.34.12.44.25a33.07,33.07,0,0,0,3,3c0,.12,0,.16-.12.13A31.34,31.34,0,0,1,42.53,70Z"/><path class="cls-5" d="M67.61,7.8c-.12-.39-.37-.5-.78-.49-1.18,0-2.36.06-3.54,0-.63,0-.79.26-.83.78,0,.19.07.41-.12.56,0-1.44,0-1.44,1.4-1.44,1.09,0,2.19,0,3.28,0C67.51,7.18,67.68,7.35,67.61,7.8Z"/><path class="cls-17" d="M67,81.88a9,9,0,0,1-3.73,1.9.15.15,0,0,1-.06-.11.19.19,0,0,1,.07-.12h0a9.3,9.3,0,0,0,2.76-1.43,1.71,1.71,0,0,1,.77-.42A.23.23,0,0,1,67,81.88Z"/><path class="cls-12" d="M90.38,17.27V10.44c.15.11.12.28.12.44v5.95C90.5,17,90.53,17.16,90.38,17.27Z"/><path class="cls-5" d="M34.17,101.53c.24.36.11.77.11,1.16s.09.54.5.53q1.08,0,2.16,0c.37,0,.49-.14.47-.49s0-.8,0-1.2a3.51,3.51,0,0,1,.1,1.58c0,.21-.19.22-.36.22-.85,0-1.71,0-2.57,0-.31,0-.42-.12-.41-.42C34.18,102.45,34.17,102,34.17,101.53Z"/><path class="cls-12" d="M53.59,9.84c.22.24.12.53.11.79,0,.43.15.55.55.54.65,0,1.31,0,2,0,.4,0,.52-.15.5-.53s0-1,0-1.52a5.5,5.5,0,0,1,.11,1.94c0,.25-.25.21-.42.22-.78,0-1.55,0-2.33,0-.37,0-.5-.12-.48-.48S53.59,10.16,53.59,9.84Z"/><path class="cls-17" d="M45.68,38.25v.11c-.16.36-.52.42-.81.58-.79.44-1.49,1-2.27,1.51a.26.26,0,0,1-.18-.17,10.59,10.59,0,0,1,3.12-2A.09.09,0,0,1,45.68,38.25Z"/><path class="cls-5" d="M33.21,110a3,3,0,0,1-.1-1.52c0-.47-.11-.68-.63-.65a11.43,11.43,0,0,1-1.85,0c-.54,0-.74.15-.66.67a1.51,1.51,0,0,1,0,.3c-.32-.88-.2-1.08.67-1.08.7,0,1.39,0,2.09,0,.37,0,.49.13.48.49C33.2,108.84,33.21,109.44,33.21,110Z"/><path class="cls-18" d="M77.56,40.76a8.86,8.86,0,0,1-1.74-.57,23.3,23.3,0,0,0-2.46-.62.23.23,0,0,1,.11-.11,14.94,14.94,0,0,1,2.88.7A3.91,3.91,0,0,1,77.56,40.76Z"/><path class="cls-12" d="M82.47,10.8v6.11c-.15-.11-.12-.28-.12-.44V11.24C82.35,11.08,82.32,10.91,82.47,10.8Z"/><path class="cls-5" d="M52.63,100c-.1-.56.12-.75.7-.73,1.31,0,2.62,0,3.93,0,.36,0,.58.07.52.48l-.1,0a1.55,1.55,0,0,0-.56-.19c-1.26,0-2.52,0-3.77,0-.32,0-.43.27-.62.42Z"/><path class="cls-5" d="M77.92,16.07V13c0-.19.06-.4-.12-.55l-.08-.09a.8.8,0,0,1,.06-.84A.16.16,0,0,1,78,11.5c.28.19.23.49.23.76,0,1,0,2.07,0,3.1a1.4,1.4,0,0,1-.11.64A.14.14,0,0,1,77.92,16.07Z"/><path class="cls-5" d="M37.53,18c-.09-1.8.18-3.59.12-5.39a5.32,5.32,0,0,1,.09,2.28c-.09.89-.06,1.78-.09,2.67C37.64,17.71,37.68,17.87,37.53,18Z"/><path class="cls-10" d="M26.38,109.8h.12c.68,0,1.36,0,2,0,.36,0,.49.11.48.48,0,.76,0,1.52,0,2.27l-.12-.12c-.31-.47-.15-1-.17-1.51,0-.79,0-.81-.81-.81-.34,0-.68,0-1,0S26.43,110.12,26.38,109.8Z"/><path class="cls-19" d="M84.51,57.19c.2-.78,0-1.59.23-2.36a1.64,1.64,0,0,0-.11-.76c.05,0,.06-.12.13-.13.21.3.1.65.11,1a11.17,11.17,0,0,1-.23,2.51C84.54,57.37,84.6,57.25,84.51,57.19Z"/><path class="cls-5" d="M76.84,19.67c0,1,0,1-1,1H75c-.18,0-.37,0-.4-.24a.46.46,0,0,1,.07-.07,2,2,0,0,1,1-.09.92.92,0,0,0,1.07-.57Z"/><path class="cls-5" d="M67,111.84c0,.84,0,.84-.86.84-.34,0-.68,0-1,0s-.43-.06-.41-.36l.09,0a8.22,8.22,0,0,1,1.11,0,1,1,0,0,0,1-.46Z"/><path class="cls-5" d="M48,14.87c-.38.25-.81.1-1.21.12-1.07,0-.93-.13-.94,1,0,.6,0,1.19,0,1.79a.16.16,0,0,1-.2-.06,8.67,8.67,0,0,1-.08-2.49c0-.34.26-.48.57-.5a6.68,6.68,0,0,1,1.67.05A.76.76,0,0,1,48,14.87Z"/><path class="cls-20" d="M82.24,64.49a19.68,19.68,0,0,0,1.31-3.23s.1,0,.14,0a12,12,0,0,1-1.31,3.24C82.33,64.57,82.28,64.56,82.24,64.49Z"/><path class="cls-5" d="M97,107c-.53,0-1.07,0-1.6,0-.34,0-.45.12-.45.45,0,.77,0,1.54,0,2.31,0,.1,0,.14-.11.12a.67.67,0,0,1-.19-.55c0-.63,0-1.27,0-1.91a.63.63,0,0,1,.73-.72,4.68,4.68,0,0,1,1.54.1A.15.15,0,0,1,97,107Z"/><path class="cls-14" d="M81.17,43.76A22.09,22.09,0,0,1,79.33,42s0-.1,0-.15a9.29,9.29,0,0,1,1.51,1.36A1,1,0,0,1,81.17,43.76Z"/><path class="cls-21" d="M52.4,36.81c-.23.2-.5.11-.75.11a9.8,9.8,0,0,0-2.59.22.22.22,0,0,1-.26-.09,8,8,0,0,1,2.28-.35C51.51,36.85,52,36.64,52.4,36.81Z"/><path class="cls-22" d="M83.91,48.92l-1.15-2.67a.24.24,0,0,1,.06-.32A21.16,21.16,0,0,1,84,48.8.23.23,0,0,1,83.91,48.92Z"/><path class="cls-5" d="M97.22,101.89a3.26,3.26,0,0,1-1.52.11c-.76,0-.76,0-.76.8v1.61l-.12,0a4.33,4.33,0,0,1-.11-2.34.31.31,0,0,1,.28-.27,3.94,3.94,0,0,1,2.23.11Z"/><path class="cls-23" d="M45.8,73.37l.12-.13a11.46,11.46,0,0,1,1.8,1.68.09.09,0,0,1-.15,0A13.17,13.17,0,0,1,45.8,73.37Z"/><path class="cls-17" d="M76.73,72.55a15,15,0,0,1-1.57,1.89.19.19,0,0,1-.16-.18,8.27,8.27,0,0,1,1.47-1.81.23.23,0,0,1,.27-.06A.13.13,0,0,1,76.73,72.55Z"/><path class="cls-12" d="M80.68,110.76a30.91,30.91,0,0,0-.13-4.08.92.92,0,0,1,.24.66c0,1,0,2.1,0,3.16C80.79,110.59,80.72,110.67,80.68,110.76Z"/><path class="cls-24" d="M75,74.32l.12.12a15.58,15.58,0,0,1-1.66,1.69.11.11,0,0,1-.15,0c-.06-.23.12-.36.25-.5.38-.39.78-.77,1.14-1.19A.25.25,0,0,1,75,74.32Z"/><path class="cls-12" d="M63.66,104.77a6.5,6.5,0,0,0-.13,1.92.14.14,0,0,1-.19-.07,8.81,8.81,0,0,1-.09-2.35c0-.18,0-.46.27-.45s.27.26.29.46a.69.69,0,0,1-.08.4Z"/><path class="cls-10" d="M89.9,112.56v-.12c0-1.16,0-2.32,0-3.47,0-.06.07-.06.11,0,0,1,0,2,0,3C90,112.19,90.09,112.4,89.9,112.56Z"/><path class="cls-25" d="M64.27,42l-.13.13c-.49-.14-.67-.6-1-.92s-.39-.34-.58-.51a.23.23,0,0,1,.12-.12Z"/><path class="cls-26" d="M30.22,100.57a11.48,11.48,0,0,0-.24,3.36A5.17,5.17,0,0,1,30.22,100.57Z"/><path class="cls-27" d="M80.92,67.15a8.46,8.46,0,0,1-1.43,2l-.06-.05c-.06-.27.16-.4.27-.59.28-.34.48-.73.73-1.09.13-.17.2-.45.5-.45A.1.1,0,0,1,80.92,67.15Z"/><path class="cls-27" d="M79.49,69.18a8.22,8.22,0,0,1-1.55,1.92L77.88,71c.1-.6.66-.89,1-1.37.14-.22.25-.56.65-.5Z"/><path class="cls-28" d="M84.51,52.15,84.15,50c0-.06.09-.07.13,0a8.35,8.35,0,0,1,.36,2.16A.09.09,0,0,1,84.51,52.15Z"/><path class="cls-29" d="M52.4,36.81c-.44-.07-.9.12-1.32-.11a15.78,15.78,0,0,1,3.22.11C53.66,37,53,36.73,52.4,36.81Z"/><path class="cls-30" d="M48.55,75.64,50.23,77A.19.19,0,0,1,50,77a6,6,0,0,1-1.42-1.19A.09.09,0,0,1,48.55,75.64Z"/><path class="cls-31" d="M72.17,77.46a5.85,5.85,0,0,1-1.41,1.31.12.12,0,0,1-.16,0s0-.09,0-.11a4.21,4.21,0,0,1,1.6-1.36A.11.11,0,0,1,72.17,77.46Z"/><path class="cls-32" d="M58.15,37.88a7.6,7.6,0,0,1-2-.6s-.06,0,0-.07,0,0,0,0A6.26,6.26,0,0,1,58.15,37.88Z"/><path class="cls-5" d="M20.51,7.33V7.21h2.33c.19,0,.4-.07.55.11Z"/><path class="cls-33" d="M37.65,110.52v-2.88A7.16,7.16,0,0,1,37.65,110.52Z"/><path class="cls-12" d="M37.65,12.6c-.26-.49-.08-1-.12-1.51s0-.91,0-1.37a3.51,3.51,0,0,1,.11,1.51C37.67,11.68,37.65,12.14,37.65,12.6Z"/><path class="cls-26" d="M49.4,9a14.56,14.56,0,0,0-.13,2.64A4.26,4.26,0,0,1,49.4,9Z"/><path class="cls-34" d="M67,81.88l-.13-.13a1.78,1.78,0,0,1,1.34-1,.14.14,0,0,1,0,.16A7.26,7.26,0,0,1,67,81.88Z"/><path class="cls-10" d="M97,107a.49.49,0,0,0,0-.12,4.92,4.92,0,0,1-.12-2.32,1.27,1.27,0,0,1,.13-.19A6.14,6.14,0,0,1,97,107Z"/><path class="cls-10" d="M45.68,17.75h.12c.65,0,1.3,0,2,0,.19,0,.41-.07.56.12h-.12a4.27,4.27,0,0,1-2.35.1A.18.18,0,0,1,45.68,17.75Z"/><path class="cls-35" d="M82.24,64.49h.14a6.9,6.9,0,0,1-1,1.81.21.21,0,0,1-.07-.15A6.75,6.75,0,0,1,82,64.85Z"/><path class="cls-36" d="M45.68,38.25h-.14a3.7,3.7,0,0,1,1.83-.72Z"/><path class="cls-37" d="M35.86,53.48a5.85,5.85,0,0,1,0,2.5Z"/><path class="cls-38" d="M84.15,59.46a5.1,5.1,0,0,1,.36-1.68c0-.06.07-.05.11,0l-.36,1.8C84.16,59.6,84.09,59.58,84.15,59.46Z"/><path class="cls-10" d="M94.94,109.92v-.12h2c.19,0,.4-.07.55.12h0A3.58,3.58,0,0,1,94.94,109.92Z"/><path class="cls-10" d="M48,14.87h-.12a3.39,3.39,0,0,1,0-2.39.49.49,0,0,1,0-.12A5.82,5.82,0,0,1,48,14.22C48,14.44,48,14.65,48,14.87Z"/><path class="cls-39" d="M84.51,52.15h.13a6,6,0,0,1,.12,1.79l-.13.13A13.66,13.66,0,0,0,84.51,52.15Z"/><path class="cls-40" d="M82.24,45.07c-.56-.2-.69-.76-1-1.2A3.22,3.22,0,0,1,82.24,45.07Z"/><path class="cls-41" d="M73.37,76.12h.13a1.76,1.76,0,0,1-.82.84.15.15,0,0,1-.17,0A1,1,0,0,1,73.37,76.12Z"/><path class="cls-33" d="M80.44,104.05v-2.28A4.63,4.63,0,0,1,80.44,104.05Z"/><path class="cls-5" d="M64.49,18.71c0-.32,0-.69.46-.59.33.06.91-.29.86.47A.71.71,0,0,0,64.49,18.71Z"/><path class="cls-42" d="M68.8,40.28l-.12-.13a2.84,2.84,0,0,1,1-.33c.06.07.18,0,.23.11V40A1,1,0,0,1,68.8,40.28Z"/><path class="cls-43" d="M56.11,37.18v.1c-.5-.21-1.11-.06-1.56-.47A4.62,4.62,0,0,1,56.11,37.18Z"/><path class="cls-26" d="M56,110.28a1,1,0,0,1-.17,0c-.59-.09-1.08,0-1.14.72l-.08-.08c-.11-.29-.17-.63.12-.8a1.15,1.15,0,0,1,1.27,0Z"/><path class="cls-16" d="M52.75,78.88l-.12.12a4.87,4.87,0,0,1-1.09-.82c-.06-.05-.06-.1,0-.14Z"/><path class="cls-44" d="M70.61,78.76h.15a3.42,3.42,0,0,1-1.09,1,.1.1,0,0,1-.15,0A1.59,1.59,0,0,1,70.61,78.76Z"/><path class="cls-5" d="M97,104.41v.12a2.82,2.82,0,0,1-1.88.09.18.18,0,0,1-.15-.21h2Z"/><path class="cls-5" d="M23.86,8.88a3.89,3.89,0,0,1-.48-1.56A3.6,3.6,0,0,1,23.86,8.88Z"/><path class="cls-45" d="M48.55,75.64v.14a3,3,0,0,1-1-.85h.15Z"/><path class="cls-33" d="M61.26,16.79a5.22,5.22,0,0,1-.24,1.8A5,5,0,0,1,61.26,16.79Z"/><path class="cls-33" d="M51.31,109.92a5,5,0,0,1,.24-1.8l.07.08a2.34,2.34,0,0,1-.21,1.72Z"/><path class="cls-46" d="M69.89,39.93c-.09,0-.18,0-.23-.11.4,0,.77-.4,1.2-.14Z"/><path class="cls-47" d="M33.09,103.09a5,5,0,0,1,.12-1.68A4.76,4.76,0,0,1,33.09,103.09Z"/><path class="cls-48" d="M60.66,83.41v-.1l1.44.24a.17.17,0,0,1,.06.11.11.11,0,0,1-.06.11Z"/><path class="cls-33" d="M65.09,100.21a4,4,0,0,1,.24,1.68h-.1a2.3,2.3,0,0,1-.21-1.61A.23.23,0,0,0,65.09,100.21Z"/><path class="cls-33" d="M82.71,9.12a11.92,11.92,0,0,1-.24,1.68C82.52,10.24,82.33,9.64,82.71,9.12Z"/><path class="cls-22" d="M84.28,50h-.13a4,4,0,0,1-.24-1.07l.1-.12Z"/><path class="cls-12" d="M57.06,17.87V16.19A2.43,2.43,0,0,1,57.06,17.87Z"/><path class="cls-49" d="M72.18,39.58a1.17,1.17,0,0,1-1.09,0,1.05,1.05,0,0,1,.72-.1C71.91,39.56,72.09,39.44,72.18,39.58Z"/><path class="cls-33" d="M89.9,103.69a4.32,4.32,0,0,0-.11-1.56c0-.06.07-.06.11,0A2.1,2.1,0,0,1,89.9,103.69Z"/><path class="cls-33" d="M58.62,105.37a3.74,3.74,0,0,1,.24,1.55h-.1a1.86,1.86,0,0,1-.21-1.49A.46.46,0,0,1,58.62,105.37Z"/><path class="cls-33" d="M59.1,108.6a3.78,3.78,0,0,1,.24,1.56h-.1a1.85,1.85,0,0,1-.21-1.49Z"/><path class="cls-50" d="M75.52,12.48l.24.12a.46.46,0,0,1,.07.07.67.67,0,0,1,0,.72.14.14,0,0,1-.21,0c-.26-.2-.23-.47-.18-.75a.54.54,0,0,1,0-.11Z"/><path class="cls-33" d="M74.08,17a3.93,3.93,0,0,1-.24-1.56h.1A1.86,1.86,0,0,1,74.15,17Z"/><path class="cls-51" d="M53.83,16.43v1.68A2.43,2.43,0,0,1,53.83,16.43Z"/><path class="cls-33" d="M69.29,19.07a3.78,3.78,0,0,1-.24-1.56A4,4,0,0,1,69.29,19.07Z"/><path class="cls-52" d="M72.18,39.58c-.13,0-.28,0-.37-.12h1.66l-.11.11Z"/><path class="cls-53" d="M69.53,79.72h.14a2,2,0,0,1-.84.72.1.1,0,0,1-.15,0A1,1,0,0,1,69.53,79.72Z"/><path class="cls-54" d="M83.69,61.26h-.14c.17-.3.11-.69.36-1a.28.28,0,0,1,.11.13C83.88,60.69,83.94,61,83.69,61.26Z"/><path class="cls-33" d="M56.1,111.84c-.26-.5-.05-1-.12-1.56h0a1.26,1.26,0,0,1,.12,1.56Z"/><path class="cls-33" d="M33.21,112.8h1.44A1.89,1.89,0,0,1,33.21,112.8Z"/><path class="cls-33" d="M34.41,108.6a1.89,1.89,0,0,1,0,1.44Z"/><path class="cls-12" d="M99.61,11.64V10.2A1.89,1.89,0,0,1,99.61,11.64Z"/><path class="cls-5" d="M65.81,18.59c.25.46.06,1,.12,1.44C65.68,19.57,65.87,19.07,65.81,18.59Z"/><path class="cls-55" d="M63.42,106.69h.11v1.43h-.11A1.32,1.32,0,0,1,63.42,106.69Z"/><path class="cls-56" d="M77.92,16.07H78a1.34,1.34,0,0,1,0,1.44h-.12Z"/><path class="cls-33" d="M54.67,111c-.06.48.13,1-.12,1.44h0c-.3-.62-.26-1.12.12-1.44Z"/><path class="cls-33" d="M34.41,110c-.12.61-.34.72-1,.48A.87.87,0,0,0,34.41,110Z"/><path class="cls-33" d="M30,108.84c.25.46.05,1,.12,1.44C29.85,109.82,30,109.32,30,108.84Z"/><path class="cls-57" d="M60.58,39.08a2.14,2.14,0,0,1-1-.46s-.06-.06,0-.09,0,0,0,0A3.26,3.26,0,0,1,60.58,39.08Z"/><path class="cls-12" d="M52.51,20.75H54A1.89,1.89,0,0,1,52.51,20.75Z"/><path class="cls-58" d="M81.39,66.17v.14a1.62,1.62,0,0,1-.48.84V67A.79.79,0,0,1,81.39,66.17Z"/><path class="cls-12" d="M85.71,20.75h1.44A1.89,1.89,0,0,1,85.71,20.75Z"/><path class="cls-26" d="M52.51,10.92a1.56,1.56,0,0,1,0-1.32Z"/><path class="cls-12" d="M34.17,99c-.4,0-.81-.09-1.2.12,0,0,0,0,0-.08a.05.05,0,0,1,0,0A1.33,1.33,0,0,1,34.17,99Z"/><path class="cls-5" d="M64.37,20c.07-.44-.13-.9.13-1.32C64.43,19.15,64.63,19.61,64.37,20Z"/><path class="cls-12" d="M57.06,16.19a3.77,3.77,0,0,1-.24-1.2A1.7,1.7,0,0,1,57.06,16.19Z"/><path class="cls-33" d="M82.47,16.91c.26.42.06.88.12,1.32C82.34,17.81,82.54,17.35,82.47,16.91Z"/><path class="cls-59" d="M65.69,104.41c.2.1,0,.38.24.48L66,105c.07.2.12.45-.1.5s-.26-.23-.31-.41a.75.75,0,0,1,0-.57Z"/><path class="cls-33" d="M56,20a2.74,2.74,0,0,1,.72-.72A1,1,0,0,1,56,20Z"/><path class="cls-33" d="M53.59,7.08c-.39-.21-.8-.08-1.2-.12a1.37,1.37,0,0,1,1.2,0s0,.06,0,.08S53.6,7.08,53.59,7.08Z"/><path class="cls-33" d="M87,7.08c-.39-.21-.8-.08-1.2-.12A1.33,1.33,0,0,1,87,7s0,0,0,.07S87,7.08,87,7.08Z"/><path class="cls-12" d="M31.06,7.68a2.82,2.82,0,0,1-.73.73A.94.94,0,0,1,31.06,7.68Z"/><path class="cls-12" d="M90,109h-.11c0-.45,0-.89,0-1.33C90.16,108.06,90,108.53,90,109Z"/><path class="cls-26" d="M33,20.75h1.32A1.6,1.6,0,0,1,33,20.75Z"/><path class="cls-60" d="M84,60.42l-.11-.13a1.86,1.86,0,0,1,.24-.83l.11.12Z"/><path class="cls-61" d="M59,38.37c-.27-.17-.61-.23-.84-.49a1.4,1.4,0,0,1,.85.35C59.05,38.28,59.05,38.32,59,38.37Z"/><path class="cls-41" d="M48.19,37.41h-.12s-.11,0-.13-.12a1.29,1.29,0,0,1,.73-.23C48.67,37.39,48.29,37.21,48.19,37.41Z"/><path class="cls-62" d="M78.4,41.25a1.28,1.28,0,0,1-.84-.49A1.28,1.28,0,0,1,78.4,41.25Z"/><path class="cls-27" d="M76.73,72.55V72.4c0-.37.24-.51.53-.62l.08,0C77.25,72.16,77,72.34,76.73,72.55Z"/><path class="cls-28" d="M77.94,71.1a1.53,1.53,0,0,1-.61.72h0c-.1-.49.2-.65.6-.72Z"/><path class="cls-47" d="M68.45,13.44a1.45,1.45,0,0,1-.12-1.08A2.81,2.81,0,0,1,68.45,13.44Z"/><path class="cls-63" d="M62.1,83.77v-.09a2.44,2.44,0,0,1,1.2,0,.37.37,0,0,1,0,.11Z"/><path class="cls-33" d="M34.17,7H33.09A1.09,1.09,0,0,1,34.17,7Z"/><path class="cls-12" d="M37.05,106.21a2.05,2.05,0,0,1-.61-.6A.7.7,0,0,1,37.05,106.21Z"/><path class="cls-33" d="M37.41,101.53a2.68,2.68,0,0,1-.25-1C37.48,100.83,37.39,101.19,37.41,101.53Z"/><path class="cls-33" d="M89.06,20a1.94,1.94,0,0,1,.61-.6A.71.71,0,0,1,89.06,20Z"/><path class="cls-33" d="M37.05,100.33a1.72,1.72,0,0,1-.6-.6A.72.72,0,0,1,37.05,100.33Z"/><path class="cls-54" d="M50,77h.26l.24.12.12.24a.09.09,0,0,1-.14,0A.73.73,0,0,1,50,77Z"/><path class="cls-33" d="M62.1,10.44c-.06.32.12.66-.12,1C62,11.08,61.86,10.73,62.1,10.44Z"/><path class="cls-47" d="M58.38,103.69c.23.25.07.56.12.84h-.09a1,1,0,0,1-.18-.83A.1.1,0,0,1,58.38,103.69Z"/><path class="cls-5" d="M77,18.71c0,.32.12.66-.12,1h0a.74.74,0,0,1,0-1Z"/><path class="cls-47" d="M32.14,20.51c.26.13.59,0,.83.24C32.68,20.7,32.33,20.88,32.14,20.51Z"/><path class="cls-33" d="M52,104.53c0-.32-.12-.67.12-1l.07.07a.82.82,0,0,1-.09.89Z"/><path class="cls-33" d="M65.93,104.89c.06-.32-.12-.67.12-1l.08.07c.07.33.24.68-.2.89Z"/><path class="cls-50" d="M79.12,105.48l-.41,0c.12-.28.35-.18.53-.2Z"/><path class="cls-33" d="M24.46,18.23a1.15,1.15,0,0,1,.24.84A1.27,1.27,0,0,1,24.46,18.23Z"/><path class="cls-33" d="M66.05,103.93c.06-.32-.12-.67.12-1a.27.27,0,0,1,.07.08c.08.32.25.67-.19.88Z"/><path class="cls-26" d="M75.76,12.6c0-.32-.12-.67.12-1l.07.07c.08.33.25.67-.19.89Z"/><path class="cls-26" d="M66.41,101.17c.06-.32-.12-.66.12-1h0a.75.75,0,0,1,0,1Z"/><path class="cls-47" d="M77.08,17.87c0,.28.11.59-.12.84h0a.7.7,0,0,1,.05-1C77.1,17.74,77.13,17.79,77.08,17.87Z"/><path class="cls-26" d="M66.17,103c.06-.32-.12-.66.12-1l.07.08c.08.32.25.67-.19.88Z"/><path class="cls-33" d="M61.86,12.24c0,.31.12.66-.12,1C61.79,12.88,61.62,12.53,61.86,12.24Z"/><path class="cls-33" d="M51.79,106.33c.05-.32-.12-.67.12-1l.07.07a.8.8,0,0,1-.09.89Z"/><path class="cls-64" d="M62.69,40.53l-.12.12a1.23,1.23,0,0,1-.47-.49C62.37,40.16,62.49,40.42,62.69,40.53Z"/><path class="cls-33" d="M90.26,18.23c.06-.32-.12-.67.12-1C90.33,17.59,90.5,17.93,90.26,18.23Z"/><path class="cls-47" d="M88.35,105.73c-.1,0-.22,0-.26-.08s.09-.13.14-.14a2.57,2.57,0,0,1,.48,0Z"/><path class="cls-33" d="M52.27,102.73c0-.32-.12-.66.12-1l.07.07a.84.84,0,0,1-.09.9Z"/><path class="cls-33" d="M80.44,101.77a1.91,1.91,0,0,1-.25-.84C80.47,101.15,80.44,101.47,80.44,101.77Z"/><path class="cls-33" d="M77.08,17.87v-.12a.61.61,0,0,1,0-.84h.1C77.15,17.23,77.32,17.57,77.08,17.87Z"/><path class="cls-33" d="M77.68,13.32c-.05.31.12.66-.12.95l-.07-.06a.82.82,0,0,1,.09-.9Z"/><path class="cls-47" d="M75.16,10c.23.25.08.56.12.84h-.09A1,1,0,0,1,75,10,.1.1,0,0,1,75.16,10Z"/><path class="cls-33" d="M61.62,14c-.06.32.12.67-.12,1C61.55,14.68,61.38,14.33,61.62,14Z"/><path class="cls-47" d="M52.51,100.93c.05-.32-.12-.66.12-1h0a.74.74,0,0,1,0,1Z"/><path class="cls-26" d="M35.37,20.51a1.42,1.42,0,0,1,.72-.37A.76.76,0,0,1,35.37,20.51Z"/><path class="cls-47" d="M57.9,100.45c.23.25.08.56.12.84h-.09c-.24-.23-.19-.53-.18-.83A.12.12,0,0,1,57.9,100.45Z"/><path class="cls-33" d="M56.46,14.4c-.08-.23-.37-.33-.36-.61C56.27,14,56.65,14,56.46,14.4Z"/><path class="cls-50" d="M98.06,13.68c-.1,0-.22,0-.26-.08s.08-.13.14-.14a2.57,2.57,0,0,1,.48,0Z"/><path class="cls-33" d="M61.38,15.83c-.05.32.12.67-.12,1C61.31,16.47,61.14,16.13,61.38,15.83Z"/><path class="cls-26" d="M76,10.8c0-.32-.12-.67.12-1l.07.07a.82.82,0,0,1-.09.9Z"/><path class="cls-33" d="M51.55,108.12c.05-.31-.12-.66.12-1l.07.08c.07.32.25.67-.19.88Z"/><path class="cls-33" d="M76.24,8.88c.05-.32-.12-.66.12-1h0a.75.75,0,0,1,0,1Z"/><path class="cls-51" d="M90.38,10.44c-.24-.29-.06-.64-.12-1C90.5,9.78,90.33,10.12,90.38,10.44Z"/><path class="cls-12" d="M33.45,101.29c.33-.21.61-.22.72.24A.91.91,0,0,0,33.45,101.29Z"/><path class="cls-33" d="M67.49,108.24c0,.32.12.67-.12,1l-.07-.07a.81.81,0,0,1,.1-.89Z"/><path class="cls-65" d="M68.69,80.44h.14a1.22,1.22,0,0,1-.61.51v-.16C68.29,80.57,68.4,80.38,68.69,80.44Z"/><path class="cls-51" d="M67.73,106.44c0,.32.12.67-.12,1l-.07-.07a.82.82,0,0,1,.09-.89Z"/><path class="cls-33" d="M76.12,9.84c0-.32-.12-.66.12-1h0c.2.35.34.69-.12,1Z"/><path class="cls-47" d="M51.19,110.88c.05-.32-.12-.66.12-1h0a.75.75,0,0,1,0,1Z"/><path class="cls-26" d="M84.75,7.2a1.42,1.42,0,0,1-.72.37A.76.76,0,0,1,84.75,7.2Z"/><path class="cls-33" d="M67.25,110c0,.32.12.66-.12,1a.46.46,0,0,0-.07-.07.82.82,0,0,1,.1-.9Z"/><path class="cls-26" d="M51.19,7.2a1.34,1.34,0,0,1-.72.36A.79.79,0,0,1,51.19,7.2Z"/><path class="cls-33" d="M77.44,15.11c0,.32.12.67-.12,1a.46.46,0,0,1-.07-.07.8.8,0,0,1,.09-.89Z"/><path class="cls-51" d="M62.34,8.64c-.06.32.12.67-.12,1C62.27,9.28,62.1,8.94,62.34,8.64Z"/><path class="cls-33" d="M37.41,9.24a1.34,1.34,0,0,1-.36-.72A.79.79,0,0,1,37.41,9.24Z"/><path class="cls-47" d="M77.32,16.07c0,.28.11.59-.12.84h0c-.19-.31-.31-.61.12-.84Z"/><path class="cls-66" d="M72.52,77h.16l-.51.49v-.14Q72.13,76.91,72.52,77Z"/><path class="cls-33" d="M68.93,16.67c-.23-.25-.07-.56-.12-.84C69,16.08,68.88,16.39,68.93,16.67Z"/><path class="cls-16" d="M51.55,78v.14a.8.8,0,0,1-.49-.37C51.32,77.66,51.36,78,51.55,78Z"/><path class="cls-47" d="M61.5,15c0,.28.11.59-.12.84C61.43,15.55,61.27,15.25,61.5,15Z"/><path class="cls-47" d="M73.84,15.47c-.23-.25-.07-.56-.12-.84h.11a.62.62,0,0,1,0,.84Z"/><path class="cls-12" d="M35,99.13c-.28,0-.59.11-.84-.12C34.45,99.06,34.76,98.9,35,99.13Z"/><path class="cls-47" d="M77.56,14.27c0,.28.11.59-.12.84h0c-.19-.31-.31-.61.12-.84Z"/><path class="cls-51" d="M68.69,15.11c-.23-.25-.07-.56-.12-.84C68.8,14.53,68.64,14.83,68.69,15.11Z"/><path class="cls-33" d="M73.72,14.63c-.23-.25-.07-.56-.12-.84h.11a.62.62,0,0,1,0,.84Z"/><path class="cls-33" d="M65,99.37c.23.26.08.56.12.84h0c-.43-.22-.29-.53-.12-.84Z"/><path class="cls-47" d="M68.57,14.28c-.23-.26-.07-.57-.12-.85C68.68,13.69,68.52,14,68.57,14.28Z"/><path class="cls-33" d="M69.41,19.91c-.23-.25-.07-.56-.12-.84C69.52,19.32,69.36,19.63,69.41,19.91Z"/><path class="cls-33" d="M89.31,100.34a1.28,1.28,0,0,1-.49-.49A.52.52,0,0,1,89.31,100.34Z"/><path class="cls-47" d="M61.74,13.19c-.05.28.11.59-.12.85C61.67,13.76,61.51,13.45,61.74,13.19Z"/><path class="cls-47" d="M52.39,101.77c0-.28-.11-.59.12-.84h0c.19.31.31.62-.12.84Z"/><path class="cls-26" d="M66.29,102c0-.28-.11-.59.12-.84h0c.19.31.32.62-.12.84Z"/><path class="cls-47" d="M58,101.29c.23.25.08.56.12.84H58a.61.61,0,0,1,0-.84Z"/><path class="cls-51" d="M73.6,13.79c-.23-.25-.07-.56-.12-.83h0c.44.22.31.52.12.84Z"/><path class="cls-33" d="M77.8,12.48c0,.27.11.58-.12.84h0c-.19-.32-.31-.62.12-.84Z"/><path class="cls-51" d="M65.33,101.89c.23.25.08.56.12.84h-.1a.61.61,0,0,1,0-.84Z"/><path class="cls-47" d="M58.14,102.13c.23.25.07.56.12.84h-.1a.61.61,0,0,1,0-.84Z"/><path class="cls-47" d="M52.15,103.57c.05-.28-.11-.59.12-.84h0c.19.31.31.61-.12.84Z"/><path class="cls-33" d="M65.45,102.73c.23.25.08.56.12.84h-.1a.61.61,0,0,1,0-.84Z"/><path class="cls-47" d="M65.57,103.57c.23.25.08.56.12.84h0c-.43-.23-.3-.53-.12-.84Z"/><path class="cls-47" d="M75.4,11.64c.23.25.07.56.12.84h0c-.43-.17-.26-.48-.19-.77Z"/><path class="cls-51" d="M30,103.93a1.27,1.27,0,0,1,.24.6C29.87,104.43,30,104.14,30,103.93Z"/><path class="cls-47" d="M62,11.4c0,.28.11.58-.12.84C61.91,12,61.75,11.65,62,11.4Z"/><path class="cls-47" d="M51.91,105.37c.05-.28-.11-.59.12-.84h0c.19.31.31.61-.12.84Z"/><path class="cls-33" d="M58.5,104.53c.23.25.07.56.12.84h0c-.43-.23-.3-.53-.12-.84Z"/><path class="cls-12" d="M63.78,105.61c-.24-.26-.08-.56-.12-.84h0c.42.16.26.47.19.76Z"/><path class="cls-47" d="M63.9,106.44c-.24-.25-.08-.56-.12-.83h0c.42.16.26.47.19.76A.46.46,0,0,0,63.9,106.44Z"/><path class="cls-47" d="M67.85,105.61c0,.27.11.58-.12.83h0c-.19-.32-.31-.62.12-.84Z"/><path class="cls-33" d="M68.21,11.88c-.23-.26-.07-.56-.12-.84C68.32,11.29,68.16,11.6,68.21,11.88Z"/><path class="cls-47" d="M51.67,107.16c0-.27-.11-.58.12-.83h0c.19.32.31.62-.12.84Z"/><path class="cls-26" d="M75.88,11.64c.05-.28-.11-.59.12-.84h0c.19.31.31.61-.12.84Z"/><path class="cls-33" d="M75.28,10.8c.23.25.08.56.12.84h0c-.43-.23-.3-.53-.12-.84Z"/><path class="cls-51" d="M68.09,11c-.23-.25-.07-.56-.12-.84C68.2,10.45,68,10.76,68.09,11Z"/><path class="cls-47" d="M32.37,7.08a1.17,1.17,0,0,1-.72.25A.79.79,0,0,1,32.37,7.08Z"/><path class="cls-51" d="M58.86,106.92c.23.26.07.56.12.84h-.1a.61.61,0,0,1,0-.84Z"/><path class="cls-51" d="M62.22,9.6c0,.28.11.59-.12.84C62.15,10.16,62,9.85,62.22,9.6Z"/><path class="cls-47" d="M67.73,8.64c-.23-.25-.07-.56-.12-.84C67.84,8.05,67.68,8.36,67.73,8.64Z"/><path class="cls-33" d="M89.67,8.29a1.35,1.35,0,0,1-.49-.49A.51.51,0,0,1,89.67,8.29Z"/><path class="cls-47" d="M64.14,108.12c-.24-.25-.08-.56-.12-.84h.09a.66.66,0,0,1,.09.78Z"/><path class="cls-47" d="M67.61,107.4c0,.28.11.59-.12.84h0c-.19-.31-.31-.61.12-.84Z"/><path class="cls-51" d="M99,8.29a1.33,1.33,0,0,1-.48-.49A.5.5,0,0,1,99,8.29Z"/><path class="cls-51" d="M74.92,8.28c.23.25.08.56.12.84h-.1a.61.61,0,0,1,0-.84Z"/><path class="cls-51" d="M59,107.76c.23.26.07.56.12.84h0c-.43-.22-.31-.53-.12-.84Z"/><path class="cls-51" d="M99.61,10.2c-.23-.25-.07-.56-.12-.84C99.72,9.61,99.57,9.92,99.61,10.2Z"/><path class="cls-47" d="M64.26,109c-.24-.25-.08-.56-.12-.84h0c.43.17.27.48.2.77A.46.46,0,0,0,64.26,109Z"/><path class="cls-67" d="M62.1,40.16c-.26,0-.42-.2-.6-.36A.57.57,0,0,1,62.1,40.16Z"/><path class="cls-47" d="M64.38,109.8c-.24-.25-.08-.56-.12-.84h0c.43.17.27.48.2.77A.46.46,0,0,0,64.38,109.8Z"/><path class="cls-47" d="M67.37,109.2c-.05.28.11.59-.12.84h0c-.18-.31-.31-.61.12-.84Z"/><path class="cls-47" d="M75.16,10H75a.62.62,0,0,1,0-.84h0C75.27,9.37,75.12,9.68,75.16,10Z"/><path class="cls-47" d="M64.5,110.64c-.24-.25-.08-.56-.12-.84h0c.43.16.27.48.2.76Z"/><path class="cls-68" d="M59,38.37v-.14l.59.26v.12Z"/><path class="cls-26" d="M87.75,20.63a1.08,1.08,0,0,1,.72-.24A.81.81,0,0,1,87.75,20.63Z"/><path class="cls-33" d="M99.49,9.36a1.31,1.31,0,0,1-.24-.6C99.6,8.85,99.45,9.14,99.49,9.36Z"/><path class="cls-51" d="M74.56,20.39c-.23-.26-.07-.56-.12-.84h.11a.62.62,0,0,1,0,.84Z"/><path class="cls-33" d="M83.19,19.42a1.35,1.35,0,0,1,.49.49A.51.51,0,0,1,83.19,19.42Z"/><path class="cls-33" d="M59.34,110.16c.23.25.07.56.12.84h-.1a.61.61,0,0,1,0-.84Z"/><path class="cls-51" d="M74.44,19.55c-.23-.25-.07-.56-.12-.84h.11a.62.62,0,0,1,0,.84Z"/><path class="cls-33" d="M64.61,111.48c-.23-.25-.07-.56-.11-.84h0c.43.16.27.48.2.76Z"/><path class="cls-47" d="M51.07,111.72c0-.28-.11-.59.12-.84h0c.19.31.31.61-.12.84Z"/><path class="cls-47" d="M74.32,18.71c-.23-.25-.07-.56-.12-.84h.11a.62.62,0,0,1,0,.84Z"/><path class="cls-5" d="M59.46,111c.23.25.07.56.12.84h0c-.43-.23-.31-.53-.12-.84Z"/><path class="cls-47" d="M67.13,111c0,.28.11.59-.12.84h0c-.18-.31-.31-.62.12-.84Z"/><path class="cls-33" d="M30.57,111.47a1.35,1.35,0,0,1,.49.49A.51.51,0,0,1,30.57,111.47Z"/><path class="cls-33" d="M36.8,112a1.26,1.26,0,0,1,.49-.48A.5.5,0,0,1,36.8,112Z"/><path class="cls-5" d="M64.73,112.32c-.23-.25-.07-.56-.12-.84h0c.44.22.31.53.12.84Z"/><path class="cls-33" d="M67.85,9.48c-.23-.25-.07-.56-.12-.84C68,8.89,67.8,9.2,67.85,9.48Z"/><path class="cls-47" d="M74.2,17.87c-.23-.25-.07-.56-.12-.84h0c.44.22.31.53.12.84Z"/><path class="cls-33" d="M69.05,17.51c-.23-.25-.07-.56-.12-.84C69.16,16.92,69,17.23,69.05,17.51Z"/><path class="cls-33" d="M64,107.28c-.24-.25-.08-.56-.12-.84h0c.44.22.31.52.12.83Z"/><path class="cls-12" d="M99.49,12.36c0-.24-.09-.51.12-.72C99.57,11.88,99.71,12.15,99.49,12.36Z"/><path class="cls-5" d="M99.61,15.59c-.22-.21-.07-.48-.12-.72C99.72,15.08,99.57,15.35,99.61,15.59Z"/><path class="cls-47" d="M85.83,7c-.21.22-.48.08-.72.12C85.32,6.86,85.59,7,85.83,7Z"/><path class="cls-47" d="M53.59,7.08V7c.24,0,.51-.1.72.13Z"/><path class="cls-47" d="M52.39,7c-.21.22-.48.08-.72.13C51.88,6.86,52.15,7,52.39,7Z"/><path class="cls-47" d="M34.89,7.08c-.24,0-.51.1-.72-.12C34.41,7,34.68,6.86,34.89,7.08Z"/><path class="cls-47" d="M33.09,7c-.21.22-.48.08-.72.12C32.58,6.86,32.85,7,33.09,7Z"/><path class="cls-33" d="M68.81,15.83c-.22-.21-.08-.48-.12-.72C68.91,15.32,68.77,15.59,68.81,15.83Z"/><path class="cls-47" d="M89.9,107.64c-.21-.21-.07-.48-.12-.72C90,107.13,89.86,107.4,89.9,107.64Z"/><path class="cls-51" d="M88.11,99.49c-.24,0-.51.1-.72-.12C87.63,99.41,87.9,99.28,88.11,99.49Z"/><path class="cls-47" d="M57.9,100.45h-.11a.51.51,0,0,1,0-.72h0C58,99.94,57.86,100.21,57.9,100.45Z"/><path class="cls-50" d="M58.38,103.69h-.11a.51.51,0,0,1,0-.72h0C58.48,103.18,58.34,103.45,58.38,103.69Z"/><path class="cls-47" d="M56.94,18.71V18A.54.54,0,0,1,56.94,18.71Z"/><path class="cls-47" d="M33,99v.11h-.72C32.46,98.92,32.73,99.05,33,99Z"/><path class="cls-33" d="M56.11,13.8a.59.59,0,0,1-.49-.37A.58.58,0,0,1,56.11,13.8Z"/><path class="cls-33" d="M68,10.2c-.22-.21-.08-.48-.12-.72C68.07,9.69,67.93,10,68,10.2Z"/><path class="cls-69" d="M36,52.28A.53.53,0,0,1,36,53C36,52.75,36,52.52,36,52.28Z"/><path class="cls-47" d="M97.81,7.44c-.24,0-.5.1-.71-.12C97.33,7.36,97.6,7.22,97.81,7.44Z"/><path class="cls-33" d="M32.49,112.68c.24,0,.51-.1.72.12C33,112.76,32.7,112.89,32.49,112.68Z"/><path class="cls-51" d="M87,7.08V7c.24,0,.51-.1.72.11Z"/><path class="cls-50" d="M89.78,104.41c0-.24-.09-.51.12-.72C89.86,103.93,90,104.2,89.78,104.41Z"/><path class="cls-33" d="M30.81,19.78a.88.88,0,0,1,.37.37C31,20.1,30.76,20.09,30.81,19.78Z"/><path class="cls-33" d="M36.09,99.49a.68.68,0,0,1-.6-.24A.73.73,0,0,1,36.09,99.49Z"/><path class="cls-47" d="M89.9,102.13h-.11v-.72C90,101.62,89.87,101.89,89.9,102.13Z"/><path class="cls-26" d="M34.29,20.75c.21-.22.48-.09.72-.12C34.8,20.85,34.53,20.71,34.29,20.75Z"/><path class="cls-51" d="M54,20.75c.21-.22.48-.09.71-.12C54.46,20.84,54.19,20.71,54,20.75Z"/><path class="cls-70" d="M50.45,77.33h.14a.63.63,0,0,1,.36.39A.8.8,0,0,1,50.45,77.33Z"/><path class="cls-71" d="M49.39,18c.2.17.09.4.12.6C49.31,18.42,49.42,18.19,49.39,18Z"/><path class="cls-50" d="M33.57,103.69l-.24-.24Q33.68,103.35,33.57,103.69Z"/><path class="cls-26" d="M89.9,19.07a.72.72,0,0,1,.24-.48A.41.41,0,0,1,89.9,19.07Z"/><path class="cls-47" d="M78.52,99.49c-.2,0-.43.08-.6-.12C78.12,99.4,78.35,99.29,78.52,99.49Z"/><path class="cls-23" d="M42.42,40.28l.14.12c-.05.18-.14.3-.36.24V40.5Z"/><path class="cls-35" d="M47.94,37.28l.13.12c-.16,0-.32.13-.49,0C47.67,37.27,47.81,37.28,47.94,37.28Z"/><path class="cls-72" d="M84.62,57.78h-.11v-.59a.24.24,0,0,1,.12.24Z"/><path class="cls-33" d="M30.82,99.85a.83.83,0,0,1-.37.37A.35.35,0,0,1,30.82,99.85Z"/><path class="cls-47" d="M37.29,111.48a.64.64,0,0,1,.24-.48A.43.43,0,0,1,37.29,111.48Z"/><path class="cls-47" d="M53.23,15.71a.34.34,0,0,1,.36.36A.78.78,0,0,1,53.23,15.71Z"/><path class="cls-33" d="M51.91,20.63c.2,0,.43-.08.6.12C52.31,20.72,52.08,20.83,51.91,20.63Z"/><path class="cls-12" d="M85.11,20.63c.2,0,.43-.08.6.12C85.51,20.72,85.28,20.83,85.11,20.63Z"/><path class="cls-47" d="M29.85,10h-.11c0-.2-.08-.43.12-.6Z"/><path class="cls-12" d="M29.74,17.75c.2.17.09.4.12.6C29.65,18.18,29.77,18,29.74,17.75Z"/><path class="cls-71" d="M24.22,17.39c.18.13.11.31.12.48A.4.4,0,0,1,24.22,17.39Z"/><path class="cls-47" d="M79.48,105.13l.36-.25C79.88,105.21,79.63,105.1,79.48,105.13Z"/><path class="cls-33" d="M36,112.44a.69.69,0,0,1,.48-.25C36.36,112.42,36.18,112.45,36,112.44Z"/><path class="cls-51" d="M90.14,9.12a.72.72,0,0,1-.24-.48A.41.41,0,0,1,90.14,9.12Z"/><path class="cls-47" d="M34.65,112.8c.17-.2.4-.09.6-.12C35.08,112.88,34.85,112.77,34.65,112.8Z"/><path class="cls-26" d="M87.15,20.75c.16-.2.4-.09.6-.12C87.58,20.83,87.35,20.72,87.15,20.75Z"/><path class="cls-73" d="M82.81,58.14c-.64,4.12-2.87,7.44-5.47,10.53a85,85,0,0,1-9.62,9.92,23.13,23.13,0,0,1-2.59,1.92,2.9,2.9,0,0,1-3.41-.16.89.89,0,0,1-.08-.17,14.86,14.86,0,0,1-1.75-2.11,11.36,11.36,0,0,1-1.41-4.53,27.39,27.39,0,0,1,.28-8A49.23,49.23,0,0,1,62.92,53a3.7,3.7,0,0,0,.24-.54A31.33,31.33,0,0,1,66.9,47,4.87,4.87,0,0,0,68,45.73a1.18,1.18,0,0,1,.55-.53,17,17,0,0,1,2.32-1.63,2.88,2.88,0,0,0,1-.55,7.81,7.81,0,0,1,7.77,2,10.92,10.92,0,0,1,3.33,6.76,17,17,0,0,1,0,5.23C82.85,57.36,83,57.76,82.81,58.14Z"/><path class="cls-73" d="M59.25,42.19a6.31,6.31,0,0,1,2.6,6.37,22.67,22.67,0,0,1-2.53,6.18c-.06.1-.15.18-.22.28a14.44,14.44,0,0,1-1.8,1.87,3.92,3.92,0,0,1-1.21.76c-1.37.58-2.77,1.07-4.15,1.62a20,20,0,0,0-3.34,1.67c-.73.57-1.58,1-2.32,1.53a2.81,2.81,0,0,1-1.1.43,1.9,1.9,0,0,1-2.2-.76,9.93,9.93,0,0,1-1.4-2.55A18.69,18.69,0,0,1,41,56a22.76,22.76,0,0,1,.61-6,12.66,12.66,0,0,1,5.76-8.2,7.78,7.78,0,0,1,1.9-.87,2.08,2.08,0,0,0,.84-.45,11.52,11.52,0,0,1,9,1.56Z"/><path class="cls-73" d="M52.75,61.13a13.78,13.78,0,0,1,2.9-.84c.77,0,1.06.2,1.24,1a3.72,3.72,0,0,1-.06,1.66c-.18.85-.38,1.7-.57,2.56a7.69,7.69,0,0,0-.36,1.33c-.44,1.34-.55,2.74-.86,4.1a4.27,4.27,0,0,1-.61,1.53,1.9,1.9,0,0,1-1.86.57,4.5,4.5,0,0,1-2.33-1.19c.18-.29.32,0,.43,0a7.21,7.21,0,0,1-3-4.5,2.45,2.45,0,0,1,0-1c.2-1.78,1.49-2.73,2.82-3.65a10.21,10.21,0,0,1,1.85-1c.17-.07.46-.08.42-.4A.12.12,0,0,1,52.75,61.13Z"/><path class="cls-74" d="M82.81,58.14a15,15,0,0,1,.09-2.68c.2-3.32-.17-6.51-2.31-9.24a9.19,9.19,0,0,0-5.37-3.37,6.23,6.23,0,0,0-3.41.31,18.07,18.07,0,0,0-3,1.54.32.32,0,0,1-.39,0,5.3,5.3,0,0,1,2.48-1.57,8.14,8.14,0,0,1,8.26,1.27A9.84,9.84,0,0,1,82.38,49a15.71,15.71,0,0,1,.91,6.14A7.34,7.34,0,0,1,82.81,58.14Z"/><path class="cls-75" d="M72.52,77a.89.89,0,0,0-.36.36l-1.55,1.44-1.08,1-.84.72-.48.35-1.32,1c-.77.48-1.55.94-2.31,1.43a2.11,2.11,0,0,1-1.28.37A31.3,31.3,0,0,0,70,78.83a46.31,46.31,0,0,0,4.54-4.43c1.64-1.91,3.41-3.69,4.91-5.72a.87.87,0,0,1,.27-.23s0,0,0,.08,0,0,0,0l-.24.6a8,8,0,0,0-1.56,1.92c-.26.19-.54.36-.6.72a1.78,1.78,0,0,0-.6.59A13.92,13.92,0,0,0,75,74.32l-1.67,1.8A3.57,3.57,0,0,0,72.52,77Z"/><path class="cls-76" d="M40.72,56.39a6.57,6.57,0,0,0,.4,2.49,18.06,18.06,0,0,0,.79,2.28c-2.57-4-2.11-12.61,1.51-16.47a14.52,14.52,0,0,0-1.1,2.07c.08.37-.14.66-.23,1s-.19.42-.29.63a7.51,7.51,0,0,0-.55,1.86,2,2,0,0,0-.09.54,2.39,2.39,0,0,1,0,.6,24.34,24.34,0,0,0-.18,4.18C40.92,55.85,41,56.17,40.72,56.39Z"/><path class="cls-77" d="M50.11,40.64a1,1,0,0,1-.63.42,11,11,0,0,0-6.31,5.33,16.42,16.42,0,0,0-2,7c-.07.88-.06,1.75-.1,2.62a.14.14,0,0,1-.18-.05,18.19,18.19,0,0,1,.33-5.41,9.88,9.88,0,0,1,.42-1.62,33.51,33.51,0,0,1,1.43-3.24,11.22,11.22,0,0,1,6.52-5.12C49.78,40.64,50,40.47,50.11,40.64Z"/><path class="cls-78" d="M68.8,40.28,69.88,40,71,39.82c.15,0,.34-.08.42.12s-.1.27-.23.36a3.7,3.7,0,0,1-1.24.41,9.56,9.56,0,0,0-3.4,1.67,1.63,1.63,0,0,1-1.09.42c-.16,0-.32,0-.42-.16s.11-.3.18-.45A13.62,13.62,0,0,1,68.8,40.28Z"/><path class="cls-77" d="M52.75,61.26c.09,0,.24,0,.27.07s-.08.18-.17.24c-.66.39-1.39.63-2.05,1-1.45.9-2.73,1.88-3.08,3.67a.56.56,0,0,1-.16-.44,2.28,2.28,0,0,1,.13-.63,1.09,1.09,0,0,1,.08-.15,2.75,2.75,0,0,1,.18-.35s-.11.13-.13.24c-.28.28-.12.77-.48,1a.17.17,0,0,1-.16-.08.71.71,0,0,1,.16-.71,3.63,3.63,0,0,1,.8-1.3,2.23,2.23,0,0,0,.5-.42,10,10,0,0,1,2.88-1.84C51.93,61.51,52.28,61.19,52.75,61.26Z"/><path class="cls-79" d="M47.24,65.93h.11a.91.91,0,0,1,0,.93h0c.24-.32-.2-.82.3-1.06v.48A6,6,0,0,0,50,71l1.18,1.07c-.41,0-.56-.48-.94-.31-.15-.14-.4-.13-.5-.34-.48-.7-1.23-1.16-1.65-1.91a5.3,5.3,0,0,1-1-3C47.09,66.33,47.05,66.1,47.24,65.93Z"/><path class="cls-80" d="M57.92,67.53l.59-2.79c.19,0,.21.14.25.27,0,.93-.27,1.84-.38,2.76a26,26,0,0,0-.19,3.74,12.58,12.58,0,0,0,.32,3.06,2,2,0,0,1,.08.64c-.05.17-.11.34-.34.33a2.82,2.82,0,0,1-.35-1.34c0-.24-.08-.47-.11-.71a21.38,21.38,0,0,1-.12-4.73C57.81,68.36,57.62,67.9,57.92,67.53Z"/><path class="cls-81" d="M57.79,68.73a39.44,39.44,0,0,0,.12,4.86c.12.19,0,.42.1.61a4.88,4.88,0,0,0,.29,1.31,2.46,2.46,0,0,1,.45,1.31c-.2.13-.21.13-.28-.07a15.38,15.38,0,0,1-.8-2.92,17.86,17.86,0,0,1-.24-3.8c0-.84.15-1.69.23-2.54C58,67.87,57.79,68.31,57.79,68.73Z"/><path class="cls-82" d="M63.78,50.36a17.92,17.92,0,0,1,4.53-5.42c.12,0,.16,0,.18.12-.52.79-1.29,1.35-1.87,2.08a36.65,36.65,0,0,0-2.25,3c-.13.19-.24.42-.5.49S63.67,50.5,63.78,50.36Z"/><path class="cls-83" d="M41.85,48.8a28.78,28.78,0,0,0-.78,4.14c-.11,1,0,2-.06,3,0,.22.19.46-.13.61l-.16-.2c0-1.09,0-2.19,0-3.28A8.55,8.55,0,0,1,41,51.29c.2-.13,0-.34.11-.49a4,4,0,0,1,.11-.58,4.41,4.41,0,0,1,.5-1.55C41.81,48.64,41.88,48.66,41.85,48.8Z"/><path class="cls-84" d="M59.83,59.58a41.09,41.09,0,0,1,2.5-6.48c.13,0,.27-.08.32.12-.15.67-.61,1.21-.77,1.88-.54,1.33-1.09,2.65-1.53,4a2.38,2.38,0,0,1-.24.57C60,59.79,59.89,59.69,59.83,59.58Z"/><path class="cls-85" d="M50.11,40.64c-.16,0-.34,0-.47-.09A11.47,11.47,0,0,1,59,42a1.48,1.48,0,0,1,.26.24c-.87-.35-1.65-.91-2.57-1.2A10.78,10.78,0,0,0,50.11,40.64Z"/><path class="cls-86" d="M58.75,76.82a5,5,0,0,1-.45-1.31l.2-.23a8,8,0,0,1,.7,1.58,8.25,8.25,0,0,0,2.33,3.06.4.4,0,0,1,.21.28l0,.15a6.43,6.43,0,0,1-2.61-2.85Z"/><path class="cls-79" d="M68.45,45.08l-.14-.14.15-.21a14.63,14.63,0,0,1,2.66-1.39,1.68,1.68,0,0,1,.69-.18c-.14.4-.55.34-.83.5a9.3,9.3,0,0,0-2,1.48.5.5,0,0,1-.36.18C68.48,45.26,68.72,45,68.45,45.08Z"/><path class="cls-87" d="M59.83,59.58l.23.12a.28.28,0,0,1,.08.25,1.16,1.16,0,0,1,0,.18c-.46,1.31-.77,2.65-1.1,4-.07.29,0,.69-.37.85a.27.27,0,0,0-.12-.24,39.41,39.41,0,0,1,1-4.19C59.64,60.23,59.73,59.9,59.83,59.58Z"/><path class="cls-88" d="M57.79,68.73c-.08-.41.13-.85-.13-1.24a31.13,31.13,0,0,1,1-5.15,47.77,47.77,0,0,0-.78,5.19A3.75,3.75,0,0,1,57.79,68.73Z"/><path class="cls-89" d="M54.43,72.42c.74-1.72.81-3.61,1.31-5.39a2.06,2.06,0,0,1,.12-.26.41.41,0,0,1,0,.4c-.28,1.42-.57,2.84-.85,4.26A1.46,1.46,0,0,1,54.43,72.42Z"/><path class="cls-90" d="M41.85,48.8l-.13-.12c-.13-.15,0-.26.06-.37s.26-.36.18-.6l.36-1c.37-.29.44-.8.8-1.09.08,0,.16.11.12.18C42.63,46.77,42.36,47.84,41.85,48.8Z"/><path class="cls-91" d="M47.24,65.93a6.42,6.42,0,0,0,.95,3.72s.05.06,0,.09,0,0,0,0c-.37-.28-.41-.77-.71-1.11a3.73,3.73,0,0,1-.6-2.39c.08-.38,0-.82.35-1.1h.11Z"/><path class="cls-92" d="M40.88,56.59c.21-.17.09-.41.13-.61h.11a14.6,14.6,0,0,0,.44,2.94c0,.2.27.43,0,.66A7.66,7.66,0,0,1,40.88,56.59Z"/><path class="cls-93" d="M51.55,61.73a13.29,13.29,0,0,0-2.88,1.81c-.11,0-.16,0-.12-.13a7,7,0,0,1,2.75-1.8C51.44,61.55,51.56,61.51,51.55,61.73Z"/><path class="cls-94" d="M51.91,59.22l4.19-1.68c.06.05.14.06.16.14-1.33.59-2.7,1.08-4.06,1.56C52.1,59.27,52,59.3,51.91,59.22Z"/><path class="cls-95" d="M79.72,68.57v-.12c.72-1.22,1.46-2.43,2.28-3.6a8.79,8.79,0,0,1-.61,1.32,2.7,2.7,0,0,0-.48.84C80.41,67.45,80.28,68.17,79.72,68.57Z"/><path class="cls-96" d="M46.28,62.47s0-.14,0-.15c.77-.46,1.48-1,2.29-1.43.12,0,.14,0,.12.11A7.75,7.75,0,0,1,46.28,62.47Z"/><path class="cls-97" d="M62.58,53.11c-.09,0-.17.13-.25,0a16,16,0,0,1,1.45-2.74.23.23,0,0,0,.11.23c.1.29-.09.49-.21.71a8.31,8.31,0,0,0-.74,1.34A.94.94,0,0,1,62.58,53.11Z"/><path class="cls-98" d="M48.67,61l-.12-.11a15,15,0,0,1,3.36-1.67l.29,0A29.77,29.77,0,0,0,48.67,61Z"/><path class="cls-99" d="M47,66.3a7.13,7.13,0,0,0,.51,2.37c0,.16-.07.23-.18,0a4.05,4.05,0,0,1-.54-2C46.93,66.66,46.66,66.34,47,66.3Z"/><path class="cls-100" d="M57.3,56.82c.5-.65,1.19-1.13,1.65-1.81,0,0,.1,0,.15,0a5.58,5.58,0,0,1-1.68,1.9A.15.15,0,0,1,57.3,56.82Z"/><path class="cls-101" d="M47,66.3c-.16.11,0,.37-.21.47a3.33,3.33,0,0,1,.7-2.43c0,.38-.27.58-.23.84Z"/><path class="cls-102" d="M48.19,69.78v-.13c.51.52,1,1,1.51,1.57.07.07.17.14,0,.24A5.91,5.91,0,0,1,48.19,69.78Z"/><path class="cls-103" d="M57.3,56.82l.12.1a2.64,2.64,0,0,1-1.16.76l-.16-.14Z"/><path class="cls-104" d="M55.88,67.17l0-.4a2.35,2.35,0,0,1,.4-1.31A9.18,9.18,0,0,1,55.88,67.17Z"/><path class="cls-105" d="M51.55,61.73l-.25-.12a4.13,4.13,0,0,1,1.45-.48v.13A4.75,4.75,0,0,0,51.55,61.73Z"/><path class="cls-81" d="M59.05,61a1,1,0,0,1-.14.82C58.79,61.48,58.92,61.26,59.05,61Z"/><path class="cls-75" d="M63.3,83.67H62.1v-.13h1.2Z"/><path class="cls-106" d="M48.55,63.41l.12.13c-.12.21-.26.37-.53.34A1.32,1.32,0,0,1,48.55,63.41Z"/><path class="cls-5" d="M87,9.76V18H87V9.73Z"/><path class="cls-5" d="M85.93,9.88V18h-.06V9.85Z"/><path class="cls-5" d="M33.33,18.47c-.22-.1-.24-.29-.24-.5q0-4.12,0-8.26s0-.06,0-.11a1,1,0,0,1,.06.57c0,2.45,0,4.91,0,7.36a3.32,3.32,0,0,0,.12.94Z"/><path class="cls-5" d="M34.17,10c.17.13.12.33.12.5v6.67c0,.17.05.37-.12.5h0V10Z"/><path class="cls-33" d="M34.17,17.63v.58c-.13-.2-.18-.4,0-.58Z"/><path class="cls-50" d="M33.33,18.47h.54c-.24.17-.39.15-.54,0Z"/><path class="cls-47" d="M34.17,10c-.18-.13-.1-.31-.11-.55.17.22.08.39.11.55Z"/><path class="cls-2" d="M77.2,109.92a.41.41,0,0,1-.24.24c-.78.13-.78.13-.78-.61v-2.26c0-.73,0-.73.78-.6h0c.52.28.26.83.39,1.24a2,2,0,0,1,0,1.16h0C77.16,109.34,77.36,109.66,77.2,109.92Z"/><path class="cls-12" d="M77,106.69c-.56-.1-.77.11-.73.69a14.44,14.44,0,0,1,0,2.08c0,.59.17.79.73.7-.71.26-.84.18-.84-.49v-2.5C76.12,106.5,76.25,106.43,77,106.69Z"/><path class="cls-12" d="M76.85,101.61c-.52,0-.65.19-.62.64a13.53,13.53,0,0,1,0,1.56c0,.42,0,.75.62.6-.69.18-.73.15-.74-.43v-1.85C76.12,101.51,76.13,101.51,76.85,101.61Z"/><path class="cls-11" d="M77.32,109.08a4.83,4.83,0,0,0-.36-2.4c.12,0,.28,0,.29.16A4.37,4.37,0,0,1,77.32,109.08Z"/><ellipse class="cls-33" cx="77.26" cy="103.57" rx="0.04" ry="0.67"/><path class="cls-33" d="M77.24,101.93a.76.76,0,0,1,0,.66Z"/><path class="cls-11" d="M77.2,109.92c0-.28-.11-.59.12-.84C77.27,109.36,77.43,109.67,77.2,109.92Z"/><path class="cls-12" d="M86.38,104.43c-.64.19-.82,0-.8-.43,0-.62,0-1.24,0-1.85s.21-.79.86-.47c-.74-.06-.74-.06-.74.74,0,.46,0,.92,0,1.38S85.72,104.46,86.38,104.43Z"/><path class="cls-12" d="M86.73,102.16a4.91,4.91,0,0,1-.1,2C86.74,103.51,86.63,102.83,86.73,102.16Z"/><path class="cls-12" d="M95.91,9.56c-.49,0-.55.25-.49.57.15.77-.38,1.68.38,2.33-.32.1-.53,0-.51-.49,0-.65,0-1.31,0-2C95.27,9.54,95.44,9.39,95.91,9.56Z"/><path class="cls-12" d="M96.31,9.84a4.41,4.41,0,0,1,.15,1.91C96.3,11.12,96.5,10.47,96.31,9.84Z"/><path class="cls-26" d="M65.57,14.75c.33.88.13,1.17-.71,1.08-.2,0-.38,0-.36-.28s-.13-.71.11-1l.07.06a1.31,1.31,0,0,1,.09.59c0,.19.06.36.29.38s.33-.12.35-.33a1,1,0,0,1,.1-.4Z"/><path class="cls-26" d="M65.21,10.8c.25.46.06,1,.12,1.44h-.1c-.32-.44-.1-.91-.09-1.37Z"/><path class="cls-26" d="M65.33,12.24c.26.42.06.88.12,1.32h-.1a1.18,1.18,0,0,1,0-1.31Z"/><path class="cls-26" d="M65.45,13.56c.25.37.07.8.12,1.19h0c-.37-.31-.4-.62-.12-1.2Z"/><path class="cls-26" d="M64.61,14.51c.06-.35-.12-.74.12-1.07l.08.07c.06.36.29.75-.2,1Z"/><path class="cls-26" d="M65,11.64c0-.26,0-.51,0-.76s.11-.21.23-.08h0c-.17.26.07.6-.15.85Z"/><path class="cls-26" d="M64.73,13.44c.06-.32-.12-.67.12-1l.08.07c.07.33.24.67-.2.89Z"/><path class="cls-26" d="M64.85,12.48c.05-.28-.11-.59.12-.84h0c.13.3.3.61-.12.84Z"/><path class="cls-107" d="M40.28,66.89a15,15,0,0,1-2-3.38c-.08-.15-.1-.34-.25-.45-.32-1.15-.77-2.25-1-3.41-.06-.26,0-.57-.19-.79a29.59,29.59,0,0,1-.34-4.19,8.71,8.71,0,0,1,.22-2.16c.32.49.15,1,.15,1.56A20.78,20.78,0,0,0,37,57.32c.12.86.26,1.72.46,2.57s.56,1.77.83,2.66c-.29-.95-.6-1.89-.83-2.86a1.16,1.16,0,0,1,0-.18c0-.23,0-.47.15-.65.36,1.3.75,2.58,1.2,3.84a12,12,0,0,0,1.43,2.87,9,9,0,0,0,1.54,2.56,15.69,15.69,0,0,1,1,1.41,1.74,1.74,0,0,1-.86-.72A19.44,19.44,0,0,0,40.28,66.89Z"/><path class="cls-108" d="M40.76,42.2,41,42c.07-.07.11-.17.19-.22s.23-.36.41-.23-.05.3-.11.45a1.1,1.1,0,0,0-.48.6c-.11.17-.25.31-.36.48h0c-.11.17-.25.31-.36.48l-.24.36a2,2,0,0,1-.36.6h0a3.46,3.46,0,0,1-.36.72,15,15,0,0,0-1.16,3,18,18,0,0,0-.9,4.16,11.28,11.28,0,0,0-.12,3.13c.13.84,0,1.71.15,2.55a.15.15,0,0,1-.18,0c-.27-.3-.19-.68-.22-1a23.64,23.64,0,0,1,0-4.53,21.52,21.52,0,0,1,1.18-5.06c.15-.39.26-.8.44-1.18-.15.31-.21.64-.35.95s-.11.45-.41.43l.12-.71a18.55,18.55,0,0,1,1.91-3.36c.21-.28.4-.56.6-.84h0C40.52,42.51,40.66,42.37,40.76,42.2Z"/><path class="cls-109" d="M41.48,42l.1-.45L41,42a4.48,4.48,0,0,1,1.21-1.32l.36-.24a14.1,14.1,0,0,1,3.12-2c.44.19,0,.3-.06.35a11.06,11.06,0,0,0-1.73,1.15C43.08,40.55,42.28,41.26,41.48,42Z"/><path class="cls-110" d="M37.17,58h.12a1.93,1.93,0,0,1,.24.84v.72A1.8,1.8,0,0,1,37.17,58Z"/><path class="cls-109" d="M39.32,45.2a1.37,1.37,0,0,1,.36-.72A.75.75,0,0,1,39.32,45.2Z"/><path class="cls-109" d="M39.68,44.48a1.16,1.16,0,0,1,.36-.6A.57.57,0,0,1,39.68,44.48Z"/><path class="cls-109" d="M40.64,43a.58.58,0,0,1,.36-.48A.56.56,0,0,1,40.64,43Z"/><path class="cls-109" d="M40.28,43.52a.58.58,0,0,1,.36-.48A.56.56,0,0,1,40.28,43.52Z"/><path class="cls-2" d="M42.32,105.91c0-2,0-4,0-5.94,0-.46.12-.63.6-.61a17.35,17.35,0,0,0,2,0c.46,0,.63.11.62.6,0,1.14,0,2.28,0,3.42,0,.44,0,.68.59.69s.63-.26.62-.72c0-1.14,0-2.28,0-3.42,0-.45.14-.58.58-.57.78,0,1.56,0,2.34,0,.34,0,.45.12.45.45q0,6.09,0,12.17c0,.33-.11.46-.45.45-.82,0-1.64,0-2.46,0-.39,0-.46-.16-.46-.5,0-1.42,0-2.84,0-4.26,0-.44.06-.78-.62-.78s-.58.41-.58.81c0,1.38,0,2.76,0,4.14,0,.49-.15.62-.62.6a20.81,20.81,0,0,0-2.09,0c-.43,0-.55-.14-.55-.55C42.33,109.9,42.32,107.9,42.32,105.91Z"/><path class="cls-111" d="M37.17,58l.36,1.56v.12c.06.21.16.46-.24.36a24.38,24.38,0,0,1-.63-4.59c0-1,.08-2,0-3a19.33,19.33,0,0,1,1.08-4.92c.37-.37.37-.91.61-1.33.12-.22.16-.49.49-.69-.3.88-.59,1.65-.82,2.44a27,27,0,0,0-1,5.58c-.09,1.34.18,2.65,0,4A1.59,1.59,0,0,0,37.17,58Z"/><path class="cls-2" d="M26.38,109.8a4,4,0,0,0,1.81.1c.59,0,.76.18.72.75s0,1.19,0,1.78c-1.77,0-3.55,0-5.33,0-.41,0-.55-.13-.54-.55q0-6,0-12c0-.47.17-.56.6-.56,1.49,0,3,0,4.49,0,.46,0,.59.15.56.59s0,1,0,1.5c0,.34-.12.46-.45.44-.48,0-1,0-1.44,0-.28,0-.4.1-.39.39,0,.61,0,1.23,0,1.85,0,.28.09.42.38.4a1,1,0,0,1,.24,0c.5.07,1.27-.27,1.44.16a5.16,5.16,0,0,1,.08,2c0,.25-.24.22-.41.22-.42,0-.84,0-1.26,0s-.48.13-.48.49C26.39,108.21,26.38,109,26.38,109.8Z"/><path class="cls-2" d="M47.83,12.48v2.39c-.55,0-1.11,0-1.66,0-.39,0-.51.13-.5.51,0,.79,0,1.58,0,2.37a5.82,5.82,0,0,0,1.86.12c.22,0,.43,0,.65,0,0,.7,0,1.4,0,2.1,0,.3-.11.42-.42.42-1.68,0-3.35,0-5,0-.35,0-.43-.15-.43-.47V7.77c0-.34.11-.45.45-.45H47.5c.32,0,.47.09.46.44q0,.81,0,1.62c0,.38-.15.48-.5.46s-.88,0-1.31,0-.49.06-.48.42q0,.9,0,1.8c0,.31.12.43.43.42Z"/><path class="cls-2" d="M94.94,104.41a7.28,7.28,0,0,0,2,.12v2.39c-.55,0-1.11,0-1.67,0-.35,0-.52.1-.48.47a10.72,10.72,0,0,0,.12,2.53h2.52c0,.7,0,1.4,0,2.09,0,.31-.1.43-.41.43H92c-.35,0-.44-.13-.44-.46q0-6.08,0-12.15c0-.38.15-.46.5-.46h4.66c.38,0,.49.13.48.49,0,.67,0,1.35,0,2-.64,0-1.28,0-1.91,0-.35,0-.53.1-.49.48A7.42,7.42,0,0,0,94.94,104.41Z"/><path class="cls-2" d="M64,107.28c0-.27.12-.58-.12-.83,0-.28.12-.59-.11-.84-.05-.28.11-.59-.12-.84,0-.29.09-.59-.24-.85v4.2c0,1.26,0,2.51,0,3.77,0,.4-.09.58-.53.56-.61,0-1.23,0-1.85,0-.34,0-.51-.07-.51-.46q0-6.06,0-12.14c0-.38.14-.48.5-.47H65c0,.28-.11.59.12.84a5.3,5.3,0,0,0,.24,1.68c0,.28-.11.59.12.84,0,.28-.11.59.12.84.05.28-.11.58.12.84a1.66,1.66,0,0,0,.18,1c.13-.16,0-.33.06-.49.24-.3.07-.64.12-1,.24-.3.07-.64.12-1,.24-.3.07-.64.12-1,.23-.25.08-.56.12-.84.24-.29.07-.64.12-1,.31-.84.31-.84,1.33-.84s1.84,0,2.75,0c.37,0,.48.12.48.48q0,6,0,12.08c0,.4-.12.53-.51.51a16.83,16.83,0,0,0-1.74,0c-.49,0-.65-.13-.64-.63,0-2.55,0-5.11,0-7.66-.13-.09,0-.28-.13-.36a5.53,5.53,0,0,0-.23,1.81c-.23.25-.07.56-.12.84-.24.29-.07.64-.12,1-.23.26-.07.56-.12.84-.24.3-.07.64-.12,1-.23.25-.07.56-.12.84-.24.3-.07.64-.12,1-.23.25-.07.56-.12.84-.08.57-.45.66-.94.6s-.91.1-1.34-.12c0-.28.12-.59-.12-.84,0-.28.12-.59-.12-.84,0-.28.12-.59-.12-.84,0-.28.12-.59-.12-.84,0-.28.12-.58-.12-.84C64.09,107.84,64.25,107.54,64,107.28Z"/><path class="cls-112" d="M68.08,103.8c.12-.1.13-.1.13,0v.39C68.06,104.08,68.1,103.93,68.08,103.8Z"/><path class="cls-2" d="M74.2,17.87c0-.28.11-.59-.12-.84a3.78,3.78,0,0,0-.24-1.56c0-.28.12-.58-.12-.84,0-.27.12-.58-.12-.83,0-.28.12-.59-.12-.84,0-.26.07-.52-.08-.79-.25.15-.15.39-.15.57,0,2.28,0,4.55,0,6.83,0,.82,0,.82-.85.82-.47,0-1,0-1.43,0s-.6-.15-.6-.62c0-3.37,0-6.74,0-10.11,0-.6,0-1.19,0-1.79,0-.39.08-.58.53-.57,1.09,0,2.19,0,3.29,0,.43,0,.62.16.62.58,0,.14,0,.29.12.38,0,.28-.11.59.12.84V10c.22.24,0,.6.24.84,0,.28-.11.58.12.84,0,.28-.11.58.12.84,0,.28-.11.61.16.9a2,2,0,0,0,.08-.78c.24-.3.07-.64.12-1,.23-.26.07-.56.12-.84.24-.3.07-.64.12-1,.24-.3.07-.64.12-1,.24-.29.07-.64.12-1,.08-.6.48-.62,1-.61,1,0,2.07,0,3.11,0,.36,0,.48.11.48.48q0,6.06,0,12.13c0,.33-.1.47-.44.46-.68,0-1.36,0-2,0-.32,0-.41-.13-.4-.43,0-.82,0-1.63,0-2.45V11.6h-.17c-.14.28,0,.59-.07.89-.23.25-.07.56-.12.84-.24.29-.07.64-.12.95-.23.26-.07.56-.12.84-.24.3-.07.64-.12,1-.23.25-.07.56-.12.84-.23.25-.07.56-.12.84-.24.29-.07.64-.12,1-.24.29-.07.64-.12,1-.07.74-.55.79-1.14.72a10.84,10.84,0,0,0-1.14,0c0-.28.11-.59-.12-.84,0-.28.11-.59-.12-.84C74.28,18.43,74.43,18.12,74.2,17.87Z"/><path class="cls-109" d="M40.4,42.68a1.36,1.36,0,0,1-.6.84v-.24C40,43.1,40.13,42.81,40.4,42.68Z"/><path class="cls-2" d="M58.26,103v.72c.2.24,0,.6.23.84,0,.28-.11.58.12.84a3.74,3.74,0,0,0,.24,1.55c0,.28-.11.59.12.84.05.28-.11.59.12.84a3.78,3.78,0,0,0,.24,1.56c0,.28-.11.59.12.84,0,.28-.11.59.12.84.07.46-.1.64-.59.61a17.57,17.57,0,0,0-1.92,0c-.48,0-.89,0-1-.61s.15-1.06-.12-1.56a1.32,1.32,0,0,0-1.08-.09c-.45.09-.15.53-.23.81-.25.46-.06,1-.12,1.44-.93,0-1.86,0-2.78,0-.59,0-.79-.18-.7-.73.23-.25.07-.56.12-.84.24-.3.07-.64.12-1a5,5,0,0,0,.24-1.8c.24-.29.07-.64.12-1,.23-.25.07-.56.12-.84.24-.29.07-.64.12-.95.23-.26.07-.56.12-.84.24-.3.07-.64.12-1,.23-.25.07-.56.12-.84.24-.3.07-.64.12-1,.23-.25.07-.56.12-.84.24-.29.07-.64.12-1,.07-.6.48-.62,1-.6,1.17,0,2.35,0,3.53,0a.65.65,0,0,1,.65.37v.72c.21.24,0,.61.23.84,0,.28-.11.59.12.84C58.19,102.41,58,102.72,58.26,103Z"/><path class="cls-109" d="M40.76,42.2a.54.54,0,0,1-.36.48A.58.58,0,0,1,40.76,42.2Z"/><path class="cls-113" d="M61.74,80.2a8.13,8.13,0,0,1-3.24-4.92A13,13,0,0,1,58,71.56c.4.25.07.59.19.88a21.61,21.61,0,0,1,0-3.94,34.17,34.17,0,0,1,.9-5.32c.27-1.09.55-2.17.9-3.24h0c.1-.2.07-.45.2-.65a43.41,43.41,0,0,1,1.54-4.12c.32-.88.8-1.69,1.15-2.56.09-.12.16-.27.35-.22a10.29,10.29,0,0,1-1,2.24,62.91,62.91,0,0,0-2.42,6.7,31.41,31.41,0,0,0-1.26,6,23.77,23.77,0,0,0,.16,7.24,9.42,9.42,0,0,0,2.51,5.09C61.48,79.78,62,79.77,61.74,80.2Z"/><path class="cls-114" d="M63.3,52.39l-.24.24c-.08,0-.16.08-.24,0a18,18,0,0,1,1.07-2A27.81,27.81,0,0,1,68,45.47c.14-.14.3-.26.45-.39l.45-.33c0,.3-.28.37-.33.57a1.23,1.23,0,0,0-.48.48c-.3.45-.78.74-1.08,1.2a45,45,0,0,0-3,4.14C63.78,51.54,63.68,52.05,63.3,52.39Z"/><path class="cls-115" d="M74.09,56.94c-1.9-.3-3-2.27-3.14-3.87a4.59,4.59,0,0,1,1.49-4,2.55,2.55,0,0,1,1.65-.74.12.12,0,0,1,0,.16,1,1,0,0,1-.36.22,3.81,3.81,0,0,0-2.36,3.63,4.73,4.73,0,0,0,.33,2.11A3.51,3.51,0,0,0,74,56.54c.13,0,.27.06.35.21S74.15,56.84,74.09,56.94Z"/><path class="cls-116" d="M78.76,54.31a2.93,2.93,0,0,1-1.55,2.27c-.24.13-.49.69-.85.13.14-.38.52-.49.77-.73a1.63,1.63,0,0,0,.52-.62c.1-.18.18-.4.45-.4s.22-.17.29-.29S78.48,54.27,78.76,54.31Z"/><path class="cls-117" d="M77.7,50l.18.25a4.72,4.72,0,0,1,.66,2.91.35.35,0,0,1-.2.34c-.26-.12-.22-.36-.22-.57a4.34,4.34,0,0,0-.54-2.17,3.4,3.4,0,0,0-1-1.36c-.15-.12-.31-.25-.26-.49.37-.19.52.18.77.29S77.62,49.64,77.7,50Z"/><path class="cls-118" d="M78.28,53.48a4.72,4.72,0,0,0-.4-3.24c.36.11.28.48.42.72s0,.44.22.59a.29.29,0,0,1,.1.16c.07.3,0,.62.12.92s0,.62.05.93c-.23.19-.1.49-.23.71s-.09.47-.38.54a.41.41,0,0,1-.22-.29A1.36,1.36,0,0,1,78.28,53.48Z"/><path class="cls-119" d="M77.2,56.1l-.84.61a5.81,5.81,0,0,1-2.27.23l.27-.14a8.33,8.33,0,0,0,1.78-.54A4.91,4.91,0,0,1,77,55.8C77.2,55.82,77.33,55.89,77.2,56.1Z"/><path class="cls-120" d="M78.76,53.59c-.19-.3-.1-.64-.13-1s.05-.66-.11-1v-.12a.55.55,0,0,1,0-.18c.06-.15.12,0,.14,0a3.83,3.83,0,0,1,.09,2.32s0-.06,0-.08S78.75,53.59,78.76,53.59Z"/><path class="cls-121" d="M78.76,53.59v.72c-.24.18-.22.5-.37.73s-.17.26-.23,0a.16.16,0,0,1,0-.23,1.55,1.55,0,0,0,.35-.86C78.54,53.76,78.54,53.6,78.76,53.59Z"/><path class="cls-122" d="M75.16,48.31c.39-.08.72.15,1.08.25a.2.2,0,0,1,0,.26,1.37,1.37,0,0,1-1.13-.33A.17.17,0,0,1,75.16,48.31Z"/><path class="cls-79" d="M67,47a3.2,3.2,0,0,1,1.08-1.2A3.36,3.36,0,0,1,67,47Z"/><path class="cls-123" d="M76.24,48.78v-.22c.37,0,.56.31.83.48a.13.13,0,0,1,0,.22c-.24-.1-.42-.34-.72-.34C76.25,48.93,76.19,48.9,76.24,48.78Z"/><path class="cls-124" d="M77.08,49.26V49c.33.24.66.47.63,1Z"/><path class="cls-125" d="M75.16,48.31v.14a.9.9,0,0,1-1.08,0s0-.08,0-.11Z"/><path class="cls-126" d="M41.84,48.31l-.12.37-.48,1.55c0,.06-.07.06-.11,0a4.65,4.65,0,0,1,.57-1.92C41.75,48.24,41.79,48.24,41.84,48.31Z"/><path class="cls-127" d="M41.13,50.23h.11c0,.2.08.43-.12.6a.23.23,0,0,1-.1-.12A.52.52,0,0,1,41.13,50.23Z"/><path class="cls-73" d="M41.84,48.31H41.7l.26-.6C42.19,48,41.87,48.11,41.84,48.31Z"/><path class="cls-128" d="M41,50.71l.1.12c-.08.14.18.39-.14.46C41,51.1,41,50.91,41,50.71Z"/><path class="cls-129" d="M47.71,65.81c-.28.35,0,.85-.36,1.31V65.93l.37-1.06c.28,0,.17.2.11.34S47.74,65.6,47.71,65.81Z"/><path class="cls-130" d="M47.83,65.21c0-.13,0-.26-.11-.34a1.38,1.38,0,0,1,.62-.6Z"/><path class="cls-131" d="M60.06,59.94c-.3,1.19-.6,2.38-.89,3.58a30.38,30.38,0,0,0-.79,4.92c-.36-.18-.13-.47-.12-.71.12-.92.24-1.84.37-2.75.31-1.24.63-2.48.95-3.71A4.51,4.51,0,0,1,60.06,59.94Z"/><path class="cls-132" d="M58.26,67.73c.05.23-.1.5.12.71a38.16,38.16,0,0,0-.12,4.18c-.23-.4,0-.78-.24-1.06-.05-1.17.07-2.34.12-3.51A.41.41,0,0,1,58.26,67.73Z"/><path class="cls-1" d="M58,74.2c-.18-.18-.09-.4-.1-.61A1,1,0,0,1,58,74.2Z"/><path class="cls-87" d="M61.86,55.15,60.3,59.34c-.09-.05,0-.17-.11-.23L61.74,55C61.85,55,61.9,55,61.86,55.15Z"/><path class="cls-133" d="M61.86,55.15,61.74,55l.84-1.92c0-.21.17-.32.24-.48s.16-.13.24,0Z"/><path class="cls-131" d="M60.19,59.11a.24.24,0,0,1,.11.23,1.18,1.18,0,0,1-.24.6V59.7C60.1,59.5,60.14,59.3,60.19,59.11Z"/><path class="cls-2" d="M64.85,12.48c.24-.26.08-.56.12-.84.28-.23,0-.62.24-.84.06.48-.13,1,.12,1.44.07.43-.13.9.12,1.31.06.4-.12.82.12,1.2a4.64,4.64,0,0,0,0,.53c0,.35-.14.44-.46.44s-.54,0-.51-.44c0-.25,0-.51,0-.77.25-.33.07-.72.12-1.07C65,13.14,64.8,12.79,64.85,12.48Z"/><path class="cls-110" d="M37.29,60.06c.24,0,.24-.19.24-.36l1,3.23L38.3,63A27.72,27.72,0,0,1,37.29,60.06Z"/><path class="cls-12" d="M54.79,106.8a1,1,0,0,1,0,.24c-.09.56.12.82.7.73a.25.25,0,0,1,.23.06c-.32,0-.73.19-.94,0a.86.86,0,0,1,0-1Z"/><path class="cls-33" d="M55.27,103v-.59c.35.49.19,1,.23,1.55h0c-.29-.27,0-.69-.24-1Z"/><path class="cls-33" d="M55.63,105.25c-.26-.42-.06-.89-.12-1.32h0c.26.42.06.88.12,1.32Z"/><path class="cls-33" d="M55.62,105.25c.26.42.06.88.12,1.31h0c-.26-.42-.06-.88-.12-1.31Z"/><path class="cls-33" d="M55.74,106.56c.25.3.07.63,0,1v-1Z"/><path class="cls-51" d="M54.79,106.8c.05-.35-.12-.74.12-1.07h0c-.06.35.12.74-.12,1.07Z"/><path class="cls-51" d="M55,104.77c0-.32-.12-.67.12-1h0c-.06.32.12.66-.12,1Z"/><path class="cls-47" d="M54.91,105.73c.05-.32-.12-.67.12-1h0c-.06.31.12.66-.12,1Z"/><path class="cls-47" d="M55.27,103c-.05.28.11.59-.12.84h0c0-.28-.12-.59.12-.84Z"/><path class="cls-1" d="M74.08,48.43l1.08,0,1.08.33.12.14a5.23,5.23,0,0,1,1.32,1.67c.07.57.34,1.08.42,1.65a3.73,3.73,0,0,1-1.57,3.81c-.11.08-.24.15-.26.31a3.18,3.18,0,0,1-1.91.44c-3.37-.61-4.11-5.08-2-7.32A3.36,3.36,0,0,1,74.08,48.43Z"/><path class="cls-134" d="M78.16,54.79V55c-.34.06-.33.39-.48.6a1.23,1.23,0,0,1-.48.48.21.21,0,0,0-.21-.23,3.11,3.11,0,0,1,1-1.34A.28.28,0,0,1,78.16,54.79Z"/><path class="cls-135" d="M78,54.53a10.22,10.22,0,0,1-1,1.34c-.17.27-.5.3-.72.49-.16-.33.18-.4.31-.52A3.57,3.57,0,0,0,78,53.51a6.67,6.67,0,0,0-.21-2.27c0-.21-.29-.4-.08-.65a4.92,4.92,0,0,1,.6,2.89A4.29,4.29,0,0,1,78,54.53Z"/><path class="cls-73" d="M78.52,51.67c.23.29.07.64.11,1C78.4,52.33,78.57,52,78.52,51.67Z"/><path class="cls-136" d="M73,51.91a2.4,2.4,0,0,0,.38,2.27c-.64-.37-1.06-.72-1-1.41a3.46,3.46,0,0,1,.47-1.61.4.4,0,0,1,.66-.09,2.49,2.49,0,0,1-.16.53C73.24,51.73,73.25,52,73,51.91Z"/><path class="cls-137" d="M75.16,50.7a1.83,1.83,0,0,1,1.4,1.88,1.89,1.89,0,0,1-1.72,1.86c-.38.12-.68-.11-1-.24h0c-.08-.13-.32-.17-.23-.4a.34.34,0,0,1,.17,0,.53.53,0,0,1,.17,0,1.42,1.42,0,0,0,1.93-.26,1.58,1.58,0,0,0-.05-2,1.2,1.2,0,0,0-.88-.44c-.22,0-.48,0-.64-.2C74.52,50.56,74.88,50.8,75.16,50.7Z"/><path class="cls-138" d="M73.72,53.82H73.6c0,.07-.1.07-.16,0A2.24,2.24,0,0,1,73,51.91l.24-.37a.25.25,0,0,1,.18.18A2.59,2.59,0,0,0,73.72,53.82Z"/><path class="cls-139" d="M75.16,50.7c-.22.29-.61,0-.84.25a1.22,1.22,0,0,1-.32.32.35.35,0,0,1-.31.07c-.08-.08-.16-.15-.09-.28A1.5,1.5,0,0,1,75.16,50.7Z"/><path class="cls-140" d="M73.6,51.06l.12.24c0,.26-.11.37-.36.37l-.12-.13a.47.47,0,0,1,.24-.47A.17.17,0,0,0,73.6,51.06Z"/><path class="cls-141" d="M73.83,54.2l1,.24A.87.87,0,0,1,73.83,54.2Z"/><path class="cls-141" d="M73.44,53.84h.16l.23.37A.48.48,0,0,1,73.44,53.84Z"/><path class="cls-73" d="M74,51.19a.37.37,0,0,1,.36-.24,1.61,1.61,0,0,1,1.94,1,1.82,1.82,0,0,1-.61,2,1.56,1.56,0,0,1-1.81-.16,2.25,2.25,0,0,1,.3-2.5C74.22,51.25,74,51.28,74,51.19Z"/><path class="cls-142" d="M74,51.19c.17,0,.32-.18.52-.06-.11.32-.42.48-.56.8a1.87,1.87,0,0,0,0,1.5c0,.11.33.31,0,.4h-.12a1.71,1.71,0,0,1-.36-2.15l.36-.37Z"/><path class="cls-143" d="M73.43,52.76a.71.71,0,0,1,.06-.7C73.68,52.37,73.47,52.56,73.43,52.76Z"/><polygon points="33.21 9.41 33.21 18.21 34.17 18.21 34.23 9.48 33.21 9.41"/><polygon points="65.02 10.62 64.44 15.83 65.72 15.83 65.02 10.62"/><polyline points="85.87 9.86 87.15 9.73 86.95 17.95 85.87 17.95 85.87 10.02"/><polygon points="95.32 9.47 95.37 12.72 96.49 12.24 96.44 9.89 95.32 9.47"/><polygon points="55.27 102.59 54.62 107.76 55.87 107.82 55.27 102.59"/><polygon points="76.18 104.29 76.12 101.5 77.24 101.93 77.29 104.04 76.18 104.29"/><polygon points="76.13 106.93 76.12 110.3 77.2 109.92 77.29 107.17 76.13 106.93"/><polygon points="85.67 101.67 85.58 104.59 86.63 104.18 86.71 101.77 85.67 101.67"/></g></svg>